<?xml version="1.0" standalone="no"?>
<!DOCTYPE svg PUBLIC "-//W3C//DTD SVG 20010904//EN"
 "http://www.w3.org/TR/2001/REC-SVG-20010904/DTD/svg10.dtd">
<svg version="1.0" xmlns="http://www.w3.org/2000/svg"
 width="460.000000pt" height="460.000000pt" viewBox="0 0 460.000000 460.000000"
 preserveAspectRatio="xMidYMid meet">

<g transform="translate(0.000000,460.000000) scale(0.100000,-0.100000)"
fill="#000000" stroke="none">
<path d="M1 3743 c0 -841 1 -857 18 -805 10 29 21 68 24 85 7 43 90 255 133
338 19 36 34 69 34 73 0 5 20 39 45 76 25 37 45 71 45 75 0 5 12 24 28 44 15
19 36 50 47 67 67 108 299 351 443 464 244 193 520 341 767 410 44 12 82 24
84 26 2 2 -372 4 -832 4 l-837 0 1 -857z"/>
<path d="M2980 4574 c83 -25 141 -47 227 -85 23 -11 47 -19 53 -19 6 0 42 -18
80 -40 38 -22 73 -40 78 -40 15 0 227 -140 320 -212 45 -35 305 -287 360 -350
18 -20 32 -40 32 -45 0 -4 18 -28 40 -52 22 -25 56 -72 76 -105 21 -34 40 -63
43 -66 10 -8 47 -78 109 -205 87 -176 114 -257 190 -560 7 -28 10 248 11 883
l1 922 -852 -1 -853 0 85 -25z"/>
<path d="M2127 4349 c-125 -18 -277 -61 -307 -85 -23 -20 -50 -28 -142 -40
-62 -9 -151 -17 -198 -18 -77 -2 -85 -4 -85 -22 0 -15 9 -20 45 -24 l45 -5
-40 -14 c-59 -20 -203 -98 -248 -134 -60 -49 -150 -138 -180 -180 -51 -69 -60
-102 -52 -202 9 -122 22 -188 40 -201 12 -9 13 -21 6 -60 -9 -46 0 -81 18 -70
3 2 6 -173 6 -389 l0 -394 -30 -16 c-27 -14 -17 -14 20 1 8 3 15 1 15 -5 0 -6
-5 -11 -11 -11 -6 0 -3 -7 5 -16 18 -17 23 -104 6 -104 -5 0 -10 -5 -10 -11 0
-5 4 -8 9 -4 11 6 19 -18 21 -65 3 -52 1 -57 -15 -36 -8 11 -15 15 -15 8 0 -6
-13 -19 -30 -28 -18 -11 -30 -28 -32 -43 -4 -32 -36 -41 -55 -15 -11 16 -16
16 -40 3 -40 -20 -50 -31 -58 -67 -4 -18 -13 -32 -21 -32 -10 0 -13 -7 -8 -25
6 -26 -20 -80 -35 -71 -4 3 -8 -1 -8 -9 0 -7 9 -16 19 -18 10 -3 18 -1 18 4 0
5 -5 9 -11 9 -5 0 -7 4 -4 10 10 16 23 12 27 -7 3 -14 14 -18 55 -18 28 0 46
3 41 6 -6 4 -8 15 -3 25 6 18 8 17 16 -3 4 -13 13 -23 19 -23 5 0 10 -9 10
-21 0 -18 -4 -20 -27 -14 -15 3 -31 11 -34 17 -9 15 -29 1 -29 -20 0 -10 -10
-22 -22 -27 -30 -13 -38 -65 -11 -65 10 0 29 7 41 16 21 14 22 14 22 -5 0 -16
-6 -21 -25 -21 -27 0 -30 -6 -16 -29 5 -7 14 -10 20 -6 7 4 19 1 27 -6 8 -6
17 -9 21 -5 3 3 2 6 -4 6 -6 0 -13 6 -16 13 -4 10 10 14 60 14 52 1 68 5 84
22 16 17 24 19 39 11 11 -6 20 -19 20 -30 0 -10 5 -22 11 -25 6 -4 8 -14 5
-22 -3 -8 -1 -11 4 -8 6 3 10 -1 10 -9 0 -27 -28 -6 -43 31 l-14 36 0 -49 c0
-37 2 -43 7 -24 7 21 15 12 11 -12 0 -4 6 -5 14 -2 8 4 15 1 15 -5 0 -6 5 -11
10 -11 6 0 9 3 8 8 -3 14 15 67 26 74 18 13 26 9 19 -9 -6 -16 -4 -16 15 1 12
11 22 15 22 10 -1 -16 -25 -39 -45 -42 -32 -6 -35 -24 -9 -55 25 -30 27 -48 6
-55 -7 -2 -16 8 -21 22 -11 28 -51 55 -51 34 0 -9 -3 -9 -11 2 -8 12 -9 11 -4
-6 8 -29 -28 -71 -68 -80 -17 -4 -26 -9 -20 -11 7 -3 27 2 43 11 30 14 31 14
24 -6 -4 -13 -2 -18 4 -14 5 3 13 -1 16 -10 10 -25 -2 -30 -18 -9 -11 15 -17
17 -28 7 -8 -6 -18 -8 -23 -4 -4 4 0 -5 10 -20 l17 -27 -31 15 c-17 9 -31 19
-32 22 -4 35 -12 59 -25 72 -13 13 -14 13 -9 0 8 -23 -73 -64 -93 -48 -11 10
-11 13 5 19 10 4 28 19 41 33 l22 26 -27 12 c-16 7 -31 17 -35 23 -4 6 -13 2
-22 -10 -12 -16 -16 -17 -30 -6 -21 17 -46 7 -46 -19 0 -11 -4 -20 -10 -20 -5
0 -10 4 -10 9 0 5 -11 16 -25 25 -20 13 -29 14 -50 4 -24 -11 -35 -38 -16 -38
6 0 11 -17 13 -37 2 -26 7 -37 17 -35 7 1 19 -2 27 -9 8 -6 21 -9 29 -5 9 3
13 2 10 -3 -3 -5 -1 -12 5 -16 11 -7 -7 -45 -27 -58 -7 -4 -13 -16 -12 -25 0
-14 2 -13 9 3 8 18 9 17 9 -7 1 -22 -4 -28 -19 -28 -24 0 -26 -13 -5 -30 8 -7
21 -24 28 -39 13 -27 13 -28 -12 -24 -21 2 -22 1 -6 -5 42 -15 68 -40 62 -61
-7 -27 35 -64 73 -64 16 0 30 -4 30 -9 0 -4 -9 -8 -20 -8 -11 0 -20 -4 -20 -9
0 -5 -8 -12 -17 -14 -16 -4 -16 -5 1 -6 10 0 25 -9 33 -18 8 -10 12 -12 8 -5
-19 38 66 48 93 11 10 -15 18 -16 50 -7 20 5 41 14 47 19 13 13 45 11 45 -2 0
-6 7 -8 16 -5 22 8 40 -4 23 -15 -9 -6 1 -9 30 -9 l44 0 -6 39 c-6 44 7 76 17
43 6 -17 10 -18 31 -8 14 6 25 14 25 19 0 4 8 7 17 7 9 0 24 7 34 16 11 10 25
13 40 9 16 -5 18 -9 8 -15 -10 -7 -10 -11 0 -24 9 -11 10 -16 2 -16 -6 0 -11
-5 -11 -11 0 -5 5 -7 11 -3 7 4 10 1 7 -7 -3 -8 -11 -13 -17 -11 -6 1 -11 -5
-11 -13 0 -8 -5 -15 -10 -15 -10 0 -35 -48 -32 -62 13 -63 12 -65 -12 -61 -21
4 -23 2 -18 -22 4 -21 1 -26 -9 -23 -8 3 -13 12 -13 21 1 9 -4 13 -12 10 -8
-3 -11 -10 -8 -15 4 -6 1 -8 -7 -6 -8 3 -13 15 -12 27 2 11 -2 21 -8 21 -5 0
-7 -5 -3 -11 4 -8 -1 -9 -17 -3 -13 4 -37 7 -54 7 l-30 -2 31 14 c36 15 54 40
47 65 -3 13 -15 17 -48 15 -66 -2 -114 -54 -65 -70 27 -9 25 -23 -5 -31 -14
-3 -22 -10 -19 -16 7 -10 -28 -7 -36 4 -3 4 -17 -2 -30 -13 l-25 -19 25 8 c35
12 60 4 60 -18 0 -19 4 -19 53 -5 20 5 27 13 27 32 0 14 4 22 11 18 5 -4 9
-14 7 -23 -2 -10 5 -23 17 -30 18 -12 18 -13 -10 -7 -25 4 -27 3 -12 -6 10 -6
27 -9 37 -6 16 4 17 2 7 -14 -6 -10 -20 -19 -30 -19 -10 0 -16 -4 -13 -9 8
-12 -52 3 -89 23 -16 9 -35 16 -42 16 -7 0 -16 7 -21 16 -11 20 -52 10 -52
-12 0 -8 -4 -13 -10 -9 -5 3 -7 12 -4 20 3 7 1 22 -5 32 -6 10 -11 13 -11 6 0
-6 -8 -10 -17 -8 -10 1 -12 0 -5 -2 16 -6 15 -10 -6 -31 -10 -10 -24 -16 -30
-14 -8 2 -10 -3 -5 -14 3 -10 2 -15 -3 -12 -5 4 -9 -6 -9 -21 0 -23 4 -27 28
-26 15 0 27 4 27 8 0 5 5 5 10 2 6 -3 10 -1 10 4 0 6 5 11 10 11 6 0 10 -7 10
-15 0 -8 -9 -15 -19 -15 -27 0 -33 -13 -21 -44 11 -30 4 -33 -27 -11 -25 18
-70 16 -78 -3 -2 -7 -1 -11 4 -8 11 7 24 -41 16 -54 -10 -16 -28 -12 -22 4 3
8 1 16 -5 18 -6 2 -11 18 -12 36 0 18 -5 32 -10 32 -4 0 -6 -12 -3 -28 14 -67
14 -67 -19 -69 -20 -1 -34 5 -42 18 -7 11 -8 19 -2 19 5 0 8 6 6 13 -1 6 -1 8
2 4 7 -13 31 14 25 29 -3 8 1 14 8 14 8 0 5 6 -7 16 -19 15 -18 15 4 11 12 -3
20 -1 16 4 -7 12 -41 12 -46 -1 -6 -17 -47 1 -41 18 4 14 3 15 -5 2 -6 -8 -8
-18 -6 -22 3 -4 -2 -8 -10 -8 -11 0 -16 9 -16 30 0 28 -2 29 -26 20 -32 -13
-37 -12 -29 0 3 6 2 10 -4 10 -5 0 -11 -5 -13 -12 -3 -7 -14 -9 -31 -4 -21 5
-27 13 -28 34 -1 24 -2 24 -7 6 -7 -21 -8 -21 -35 7 -16 16 -23 29 -17 29 18
0 42 28 30 35 -5 3 -10 1 -10 -6 0 -19 -13 -1 -17 23 -3 20 -14 33 -35 40 -11
4 2 48 14 48 5 0 6 -4 3 -10 -7 -11 23 -3 41 11 6 5 13 8 15 6 3 -1 -13 15
-35 36 l-40 38 -13 -23 c-7 -13 -12 -17 -13 -9 0 11 -4 11 -18 -2 -10 -10 -24
-17 -30 -17 -12 0 -42 39 -42 55 0 5 10 -3 21 -20 12 -16 19 -23 16 -14 -3 9
-1 21 5 27 11 11 2 52 -13 52 -5 0 -9 -7 -9 -15 0 -8 -9 -15 -20 -15 -17 0
-19 5 -14 25 3 14 2 25 -3 25 -5 0 -9 9 -9 20 0 11 7 20 15 20 25 0 2 13 -26
15 -33 1 -43 24 -14 32 12 3 21 13 22 22 0 9 6 0 13 -19 19 -53 68 -50 68 4 0
22 3 24 15 15 11 -10 11 -14 1 -20 -8 -5 -8 -9 -2 -9 15 0 41 31 46 55 2 11
20 28 41 38 20 9 37 24 37 32 0 9 6 18 14 21 8 3 12 12 9 21 -5 13 -3 13 15 4
29 -15 36 -14 18 4 -8 9 -29 21 -47 27 -22 7 -27 13 -18 19 7 4 16 6 20 3 4
-2 10 0 14 6 3 5 14 10 23 10 15 0 15 -2 2 -11 -12 -9 -12 -10 3 -5 10 3 21 6
23 6 3 0 2 5 -1 10 -3 6 -14 10 -24 10 -10 0 -23 11 -29 25 -15 32 -15 35 -1
35 5 0 7 -4 4 -10 -3 -5 8 -2 24 8 32 18 41 42 17 42 -9 0 -12 7 -9 21 4 16 8
17 14 7 6 -9 9 -2 9 19 0 21 7 37 19 45 18 11 18 12 2 27 -9 9 -12 14 -6 11 6
-3 -1 5 -15 17 -29 27 -38 28 -60 8 -14 -13 -16 -12 -17 8 -3 32 16 37 54 16
32 -18 63 -26 50 -12 -4 3 -2 12 4 20 9 9 8 13 0 13 -16 0 -13 36 4 54 9 8 22
13 29 10 22 -9 24 28 3 59 -10 15 -15 27 -10 27 4 0 1 5 -7 10 -12 8 -12 10
-1 10 11 0 11 3 1 15 -7 8 -17 12 -23 8 -5 -3 -8 -2 -5 3 12 20 -11 54 -37 54
-15 0 -36 5 -48 11 l-22 12 20 -20 c11 -11 23 -19 28 -16 4 2 7 -1 7 -6 0 -10
-13 -15 -35 -12 -6 0 -17 -9 -25 -20 -39 -55 -39 -55 -40 -38 0 9 -7 22 -15
29 -13 11 -15 8 -15 -13 0 -16 -7 -27 -17 -30 -13 -3 -10 -5 7 -6 22 -1 23 -3
7 -12 -9 -5 -22 -7 -27 -4 -6 3 -10 0 -10 -7 -1 -7 -7 2 -15 20 -15 34 -21 37
-44 23 -11 -7 -11 -14 3 -42 9 -19 12 -29 6 -23 -15 15 -50 6 -50 -12 0 -7 -4
-16 -10 -19 -6 -4 -8 12 -5 42 4 46 4 47 -11 23 l-15 -25 6 30 c3 17 13 36 22
42 9 7 12 13 5 13 -6 0 -17 -9 -25 -20 -13 -18 -16 -19 -27 -5 -7 8 -10 26 -8
40 3 14 -1 30 -8 36 -17 14 -7 32 12 25 8 -3 14 1 14 9 0 8 7 15 15 15 15 0
19 15 15 59 -1 14 2 21 9 17 6 -4 11 -3 11 3 0 5 -6 12 -12 14 -7 3 -3 6 9 6
17 1 21 -3 16 -16 -4 -11 -3 -14 5 -9 7 4 12 14 12 22 0 8 5 14 11 14 6 0 9
-7 5 -15 -3 -9 3 -24 14 -35 11 -11 20 -16 20 -11 0 5 -7 17 -16 25 -10 10
-11 16 -3 16 8 0 9 3 0 13 -6 8 -8 17 -4 21 4 4 0 4 -10 0 -10 -3 -17 -1 -17
6 0 7 -9 9 -22 6 -13 -3 -17 -3 -10 0 19 9 14 28 -12 53 l-24 22 -28 -26 c-16
-15 -38 -31 -50 -35 -16 -6 -20 -15 -17 -37 5 -32 -24 -58 -48 -42 -11 7 -8 9
9 9 26 0 40 26 23 43 -13 13 -15 31 -2 23 4 -3 14 7 21 22 11 23 13 24 19 10
6 -17 7 -16 18 2 11 16 10 18 -4 13 -12 -5 -14 -3 -8 8 8 12 6 12 -8 1 -9 -8
-20 -11 -25 -8 -5 3 -20 -1 -35 -9 -15 -7 -29 -10 -32 -5 -2 4 4 10 15 13 17
4 18 9 10 38 -11 38 -12 35 32 57 32 17 45 46 21 48 -27 3 -27 5 -8 20 20 16
19 16 -4 9 -17 -5 -22 -4 -18 6 2 8 9 13 15 12 5 -1 12 7 15 17 6 23 -8 27
-17 5 -3 -8 -12 -15 -21 -15 -12 0 -13 -4 -6 -18 6 -11 6 -24 -1 -36 -11 -19
-2 -38 10 -20 8 13 44 14 40 2 -2 -5 -7 -9 -12 -8 -5 1 -12 -3 -16 -10 -4 -6
-16 -12 -27 -13 -18 -1 -20 -6 -16 -43 4 -37 1 -43 -18 -49 -19 -6 -20 -9 -6
-22 14 -14 19 -14 48 1 l33 16 -23 -24 c-13 -14 -21 -32 -18 -40 6 -15 -18
-43 -25 -29 -3 4 -3 1 0 -7 3 -8 5 -23 6 -32 0 -9 4 -14 8 -12 4 3 8 0 8 -5 0
-6 -4 -11 -10 -11 -5 0 -7 -6 -4 -13 2 -7 -5 -22 -16 -34 -20 -22 -20 -32 -20
-1083 l0 -1060 1634 0 1633 0 9 93 c12 126 8 207 -15 307 -22 99 -56 179 -100
234 -17 21 -31 44 -31 50 -1 6 -33 40 -71 76 -132 121 -269 259 -269 270 0 6
11 15 25 22 41 18 76 -6 199 -136 128 -136 181 -201 201 -249 8 -19 21 -39 29
-47 9 -7 16 -16 16 -21 0 -5 13 -29 29 -54 65 -102 92 -303 67 -482 l-9 -63
39 0 40 0 -3 68 c-1 37 -4 121 -6 187 -8 245 -54 341 -270 567 -37 38 -74 80
-82 92 -9 11 -52 59 -97 105 -78 78 -81 84 -63 97 26 19 41 18 76 -8 30 -23
291 -311 341 -377 28 -37 108 -193 135 -266 19 -49 34 -452 18 -459 -5 -3 32
-5 83 -5 50 -1 92 2 92 5 0 3 -5 14 -11 25 -8 16 -17 18 -43 13 l-34 -6 -6
119 c-10 189 -24 287 -56 379 -35 102 -52 126 -190 266 -58 58 -121 125 -140
149 -19 23 -54 65 -77 93 -23 28 -53 62 -67 76 -25 26 -60 99 -51 108 3 3 40
-32 83 -79 42 -46 150 -156 239 -244 188 -187 242 -260 284 -385 24 -73 29
-106 29 -183 0 -52 3 -123 7 -158 l6 -64 18 73 c24 94 38 124 69 139 20 10 27
9 42 -4 23 -21 23 -37 -2 -108 -11 -33 -18 -64 -16 -70 2 -5 7 5 11 23 6 26
17 37 54 55 34 16 47 28 49 47 6 55 13 69 48 89 73 43 101 22 90 -67 -7 -50
-3 -60 29 -78 25 -14 26 -61 3 -151 l-15 -63 298 0 299 0 -1 963 c-1 737 -4
952 -13 917 -6 -25 -14 -49 -17 -55 -4 -5 -10 -28 -14 -50 -4 -22 -12 -46 -18
-54 -10 -12 -9 -13 2 -6 11 6 13 4 6 -11 -4 -10 -14 -39 -20 -64 -19 -65 -26
-81 -35 -75 -5 3 -6 -5 -2 -17 4 -15 2 -19 -7 -14 -7 5 -11 18 -9 30 1 12 -4
29 -12 37 -12 14 -16 13 -34 -5 -13 -13 -21 -16 -24 -8 -2 7 -11 12 -19 12 -9
0 -31 17 -50 38 -18 20 -33 32 -33 25 0 -6 6 -14 13 -16 10 -4 10 -6 0 -6 -14
-1 -18 -51 -4 -51 4 0 6 -11 3 -25 -2 -14 -8 -22 -13 -19 -5 3 -6 11 -3 17 4
7 1 6 -7 -1 -12 -11 -10 -17 12 -36 14 -12 28 -30 32 -40 6 -15 3 -18 -17 -14
-18 4 -26 0 -30 -16 -3 -11 -3 -22 -1 -25 3 -2 5 1 5 8 0 7 5 9 10 6 14 -9 2
-25 -18 -25 -10 0 -26 -14 -36 -31 -13 -22 -14 -29 -5 -23 24 15 39 13 39 -5
0 -9 5 -22 12 -29 9 -9 9 -12 -2 -12 -11 -1 -11 -3 3 -11 9 -5 17 -17 17 -26
0 -14 -4 -13 -20 5 -11 12 -20 30 -20 42 0 12 -7 20 -16 20 -14 0 -14 -3 -4
-15 7 -9 10 -19 6 -23 -4 -4 -12 1 -17 11 -12 21 -29 22 -29 1 0 -10 -6 -14
-15 -10 -8 3 -20 -3 -28 -14 -8 -11 -17 -17 -20 -13 -4 3 -7 1 -7 -4 0 -6 5
-13 12 -15 9 -3 9 -6 0 -12 -8 -4 -15 1 -20 15 -10 27 -102 63 -102 39 0 -5 6
-7 13 -4 9 3 13 -5 12 -25 0 -25 -2 -28 -18 -19 -41 21 -98 -25 -68 -55 7 -7
4 -14 -11 -21 -11 -6 -25 -21 -29 -34 -6 -15 -5 -21 1 -17 6 3 10 13 10 21 0
8 1 14 3 14 1 0 16 4 34 9 24 7 33 6 37 -4 3 -9 0 -12 -10 -8 -7 3 -21 2 -31
-1 -14 -6 -14 -8 3 -21 17 -13 17 -14 2 -15 -10 0 -18 -4 -18 -8 0 -5 -13 -7
-30 -4 -16 2 -28 8 -25 12 3 5 -7 8 -22 8 -37 -2 -63 11 -57 27 8 21 -37 31
-51 11 -13 -17 -40 -23 -30 -6 3 5 2 10 -4 10 -5 0 -17 7 -25 16 -19 19 -36
11 -29 -15 3 -10 0 -22 -6 -25 -7 -4 -11 1 -11 13 0 11 -4 23 -10 26 -5 3 -10
15 -10 26 0 11 4 18 9 14 5 -3 13 0 17 6 4 8 3 9 -5 5 -7 -4 -14 2 -19 15 l-9
22 -20 -20 c-19 -19 -31 -20 -100 -11 -7 1 -10 4 -8 8 6 9 -33 45 -41 38 -8
-8 -8 -84 0 -97 4 -6 2 -11 -3 -11 -6 0 -11 5 -11 11 0 5 -5 7 -10 4 -6 -3
-10 -2 -10 4 0 5 6 12 13 14 9 4 9 6 0 6 -9 1 -10 8 -2 27 7 20 6 32 -6 51 -9
13 -21 21 -28 18 -7 -4 -3 1 8 10 11 9 19 19 18 23 -1 4 5 6 13 6 18 -2 18 1
-2 30 -10 17 -23 23 -40 21 -17 -2 -24 3 -24 16 0 10 -4 20 -9 23 -11 7 -2 48
13 58 7 5 4 8 -6 8 -13 0 -18 -8 -18 -27 l0 -26 -25 23 c-13 12 -22 27 -19 31
3 5 0 17 -5 27 -6 12 -6 23 -1 28 6 6 5 15 -1 24 -9 13 -10 12 -5 -2 3 -10 1
-18 -4 -18 -6 0 -10 5 -10 12 0 6 -3 9 -6 6 -3 -4 -1 -15 5 -26 8 -16 5 -23
-19 -40 -35 -26 -40 -27 -40 -6 0 8 -7 22 -15 30 -10 11 -15 12 -15 3 0 -8 -6
-7 -18 4 -10 10 -27 17 -38 17 -11 0 -25 5 -32 12 -8 8 -18 9 -36 0 -21 -9
-23 -9 -18 10 3 11 13 23 23 25 13 4 18 15 18 42 0 20 1 48 4 63 3 19 0 25 -9
21 -15 -6 -18 -19 -6 -25 4 -1 0 -11 -10 -21 -18 -17 -19 -16 -25 14 -4 20
-14 34 -32 40 -29 11 -71 4 -71 -12 0 -6 -9 -22 -20 -36 -11 -14 -20 -22 -20
-17 0 5 -15 17 -32 27 -34 18 -58 56 -58 90 0 10 11 33 24 50 13 18 31 48 40
67 9 19 28 54 42 77 22 36 31 43 69 49 60 9 188 75 244 127 55 50 102 119 127
184 28 72 26 240 -5 309 -21 49 -22 54 -7 105 31 110 41 215 40 419 0 151 -5
222 -16 270 -9 36 -14 77 -11 92 6 30 -13 119 -33 160 -10 19 -11 39 -5 74 14
77 -33 225 -74 233 -11 2 -45 30 -75 62 -58 62 -100 78 -100 39 0 -11 3 -20 8
-20 13 0 102 -88 102 -101 0 -7 -14 2 -31 19 -40 41 -103 84 -199 135 -132 70
-370 163 -440 172 -19 2 -66 9 -105 14 -82 12 -215 12 -298 0z m469 -934 c-9
-13 -16 -31 -16 -40 0 -17 25 -21 35 -5 5 8 11 8 20 0 10 -8 22 -2 52 25 49
45 70 47 48 4 -18 -34 -14 -59 10 -59 8 0 15 -8 15 -18 0 -10 9 -25 20 -35 14
-12 20 -29 20 -60 0 -24 14 -81 31 -128 17 -46 37 -118 45 -159 8 -41 28 -102
44 -135 16 -33 32 -76 35 -95 5 -33 5 -34 -6 -10 -7 14 -23 51 -37 83 -23 54
-43 70 -57 46 -4 -5 0 -18 8 -27 9 -9 19 -30 23 -47 4 -16 10 -34 14 -40 4 -5
16 -44 26 -85 9 -41 22 -78 27 -81 11 -8 67 19 67 31 0 18 105 122 141 141 46
23 57 23 107 3 32 -12 45 -26 68 -72 25 -49 29 -68 29 -137 0 -72 -4 -88 -40
-163 -78 -166 -229 -262 -355 -228 -26 7 -31 0 -90 -135 -6 -13 -24 -44 -40
-69 -16 -25 -36 -59 -45 -77 -17 -33 -154 -174 -222 -229 -21 -17 -65 -46 -98
-64 -33 -18 -71 -41 -85 -50 -43 -31 -217 -100 -287 -116 -196 -43 -264 -44
-366 -9 -39 14 -83 34 -97 44 -14 10 -41 26 -60 36 -53 27 -159 116 -220 185
-55 62 -140 186 -140 206 0 6 -18 58 -39 115 -79 209 -114 509 -114 969 0 275
3 324 19 389 11 41 25 76 32 79 6 2 12 -3 12 -12 0 -24 22 -31 36 -11 12 17
16 17 61 1 161 -55 451 -130 501 -129 61 2 101 37 102 90 0 10 9 36 19 58 l18
40 -5 -72 -5 -73 31 0 c18 0 64 11 104 24 44 15 104 26 152 29 51 2 81 8 84
16 3 9 7 9 17 1 10 -8 20 -8 36 1 43 22 250 77 298 78 33 1 33 1 17 -24z
m-2426 -1136 c0 -5 -7 -9 -15 -9 -9 0 -12 6 -9 15 6 15 24 11 24 -6z m-94 -26
c-10 -10 -19 5 -10 18 6 11 8 11 12 0 2 -7 1 -15 -2 -18z m72 -37 c-10 -7 -14
-17 -10 -21 4 -5 1 -5 -6 -1 -10 6 -10 11 -1 22 6 8 17 14 23 14 6 0 3 -7 -6
-14z m-51 -57 c-1 -19 -2 -19 -14 -3 -7 9 -10 21 -7 26 9 14 23 -1 21 -23z
m948 4 c-5 -10 -7 -23 -6 -30 2 -16 -19 -27 -31 -15 -6 6 -5 18 4 33 22 40 49
50 33 12z m69 -119 c3 -7 -3 -15 -12 -19 -16 -6 -16 -7 1 -20 15 -11 17 -17 7
-34 -11 -21 -30 -20 -30 0 0 6 5 7 10 4 6 -3 10 -3 10 0 0 7 -26 35 -32 35 -8
0 -6 -90 2 -90 6 0 10 -7 10 -15 0 -9 -9 -15 -25 -15 -25 0 -35 23 -15 35 6 4
8 10 5 15 -3 5 -1 11 5 15 5 3 10 12 10 18 0 7 -4 6 -10 -3 -7 -11 -14 -12
-27 -4 -26 16 -28 35 -4 41 12 3 21 11 21 19 0 28 64 43 74 18z m-559 -4 c11
-17 -5 -32 -21 -19 -7 6 -11 15 -8 20 7 12 21 11 29 -1z m-385 -70 c0 -5 -7
-10 -16 -10 -8 0 -12 5 -9 10 3 6 10 10 16 10 5 0 9 -4 9 -10z m940 -41 c0
-12 -5 -16 -15 -13 -8 4 -15 12 -15 18 0 7 7 13 15 13 8 0 15 -8 15 -18z
m-962 -27 c2 -7 -3 -12 -10 -12 -8 0 -15 7 -15 15 0 18 19 15 25 -3z m251 -33
c-9 -5 -10 -9 -2 -9 7 0 9 -9 5 -22 -5 -21 -6 -21 -13 -2 -6 16 -8 16 -8 2 -1
-18 -31 -14 -31 4 0 5 4 7 9 4 4 -3 13 6 20 20 6 14 16 22 22 18 8 -4 7 -9 -2
-15z m69 -124 c-3 -3 -9 2 -12 12 -6 14 -5 15 5 6 7 -7 10 -15 7 -18z m-103
-20 c-2 -19 2 -47 10 -62 8 -15 13 -29 10 -31 -7 -8 -45 19 -40 29 4 5 -1 9
-9 9 -9 0 -16 7 -16 15 0 9 6 12 18 9 9 -3 6 2 -8 10 -14 8 -19 15 -12 16 6 0
12 6 12 14 0 13 13 23 32 25 5 1 6 -15 3 -34z m2429 -30 c-2 -65 -2 -66 -45
-99 -24 -18 -57 -41 -74 -50 -16 -9 -70 -41 -120 -71 -80 -48 -129 -75 -280
-154 -59 -31 -204 -85 -211 -78 -3 3 -8 23 -11 45 l-5 39 103 32 c103 33 271
109 315 144 13 10 38 24 58 32 44 18 169 121 220 180 22 25 42 45 45 45 3 0 5
-29 5 -65z m43 43 c-3 -8 -6 -5 -6 6 -1 11 2 17 5 13 3 -3 4 -12 1 -19z
m-2363 -29 c-8 -14 -24 -10 -24 6 0 9 6 12 15 9 8 -4 12 -10 9 -15z m2626 -55
c0 -22 -16 -17 -17 6 -1 11 2 18 8 15 5 -4 9 -13 9 -21z m-155 -16 c-1 -13 -3
-26 -4 -30 0 -4 -8 -5 -17 -1 -15 5 -15 8 -2 17 8 6 13 17 11 24 -3 6 0 12 5
12 5 0 8 -10 7 -22z m-2710 -28 c38 -73 -2 -83 -43 -11 -12 20 -12 25 0 32 21
14 26 11 43 -21z m235 -41 c0 -11 -5 -17 -10 -14 -6 4 -8 10 -5 15 3 4 -1 11
-7 13 -8 3 -6 6 5 6 11 1 17 -6 17 -20z m2694 -49 c-12 -5 -14 -9 -6 -14 14
-8 16 -46 3 -46 -12 0 -41 29 -41 40 0 5 6 11 13 14 9 5 9 7 -1 12 -6 3 -10
10 -7 14 3 5 17 4 31 -2 22 -11 24 -13 8 -18z m-2742 -43 c-9 -18 -21 9 -15
33 l7 25 6 -25 c4 -14 5 -29 2 -33z m428 23 c0 -12 -22 -9 -32 5 -14 19 -8 26
12 15 11 -6 20 -15 20 -20z m-667 -15 c-20 -27 -40 -38 -47 -26 -3 4 6 14 19
21 14 7 25 17 25 22 0 4 5 8 10 8 6 0 3 -11 -7 -25z m2857 -15 c0 -5 -6 -9
-12 -7 -7 1 -14 -8 -16 -20 -3 -22 -32 -33 -32 -13 0 6 4 10 9 10 5 0 13 9 16
20 6 20 35 28 35 10z m33 -17 c7 3 11 11 9 18 -3 11 -1 12 10 1 8 -8 9 -15 3
-20 -14 -10 -12 -49 3 -64 7 -7 12 -16 12 -20 0 -4 -9 1 -20 12 -12 12 -18 25
-15 30 4 6 0 10 -7 10 -9 0 -9 3 2 10 13 8 12 10 -2 10 -12 0 -18 7 -17 23 1
17 2 18 6 4 3 -10 10 -16 16 -14z m1387 7 c0 -19 -18 -19 -23 -1 -3 14 -1 18
9 14 8 -3 14 -9 14 -13z m-2941 -5 c2 -2 1 -12 -3 -21 -6 -14 -9 -15 -28 -2
-35 23 -36 42 -2 34 16 -4 31 -9 33 -11z m1691 1 c0 -3 -4 -8 -10 -11 -5 -3
-10 -1 -10 4 0 6 5 11 10 11 6 0 10 -2 10 -4z m143 -13 c-7 -2 -13 -11 -13
-19 0 -8 -7 -14 -16 -14 -16 0 -16 -11 1 -52 4 -11 3 -18 -4 -18 -6 0 -11 4
-11 9 0 5 -7 17 -16 26 -15 15 -15 17 0 34 9 10 13 21 9 25 -4 4 0 4 10 0 10
-3 17 -1 17 5 0 6 8 11 18 10 10 0 12 -3 5 -6z m-2008 -34 c-4 -5 -11 -7 -16
-3 -5 3 -8 0 -7 -7 2 -6 -3 -14 -9 -16 -13 -5 -19 38 -7 50 10 9 45 -13 39
-24z m-305 -4 c-7 -8 -20 -15 -29 -15 -11 0 -8 5 9 14 33 19 35 19 20 1z
m-186 -41 c8 -22 8 -24 -7 -18 -8 3 -14 11 -14 19 0 20 13 19 21 -1z m651 -4
c3 -5 2 -10 -3 -10 -5 0 -8 -11 -7 -25 3 -25 -8 -34 -20 -15 -3 6 -1 10 6 10
7 0 10 3 6 6 -10 10 -68 -30 -62 -43 6 -17 -50 11 -61 29 -5 7 4 5 18 -4 32
-21 46 -8 21 18 -17 17 -17 17 5 12 12 -3 22 -2 22 4 0 6 11 7 25 4 18 -5 25
-2 25 9 0 17 16 20 25 5z m1560 -11 c-8 -12 -35 -12 -35 0 0 11 22 20 33 14 4
-2 5 -9 2 -14z m1276 -2 c-13 -13 -26 -3 -16 12 3 6 11 8 17 5 6 -4 6 -10 -1
-17z m-1221 -11 c0 -9 -10 -13 -25 -12 -29 1 -33 12 -7 19 29 8 32 7 32 -7z
m-1880 -16 c0 -5 -2 -10 -4 -10 -3 0 -8 5 -11 10 -3 6 -1 10 4 10 6 0 11 -4
11 -10z m-304 -25 l29 -16 -29 3 c-16 2 -31 9 -34 16 -5 16 0 15 34 -3z m1041
-17 c-3 -7 -5 -2 -5 12 0 14 2 19 5 13 2 -7 2 -19 0 -25z m1062 18 c8 -10 9
-16 1 -21 -6 -3 -7 -12 -4 -18 4 -7 -5 -1 -19 12 -15 14 -27 28 -27 33 0 13
37 9 49 -6z m-1186 -3 c-7 -2 -21 -2 -30 0 -10 3 -4 5 12 5 17 0 24 -2 18 -5z
m1527 -13 c0 -11 -2 -20 -4 -20 -2 0 -6 9 -9 20 -3 11 -1 20 4 20 5 0 9 -9 9
-20z m863 -8 c-10 -10 -20 -17 -22 -16 -6 5 20 34 30 34 5 0 1 -8 -8 -18z
m-3387 -6 c10 -8 16 -17 12 -21 -4 -4 -17 2 -29 14 -26 24 -13 29 17 7z m79
-43 c0 -1 11 0 24 4 13 3 20 11 17 19 -4 10 3 14 19 14 14 0 25 -6 26 -12 0
-7 2 -21 4 -31 3 -14 -1 -17 -13 -11 -27 12 -60 7 -77 -10 -18 -18 -35 -21
-35 -6 0 6 7 10 15 10 8 0 15 5 15 10 0 6 -6 10 -14 10 -16 0 -29 27 -20 42 5
7 20 -8 39 -39z m2152 5 c-3 -7 -5 -2 -5 12 0 14 2 19 5 13 2 -7 2 -19 0 -25z
m121 -46 c4 -26 10 -27 40 -6 22 15 23 15 20 -2 -2 -11 -7 -22 -12 -25 -12 -9
1 -42 14 -34 5 3 10 1 10 -4 0 -6 -4 -11 -10 -11 -5 0 -10 -6 -10 -14 0 -17
23 -25 65 -21 24 1 31 7 36 31 4 16 7 21 8 10 1 -12 6 -16 16 -12 9 3 15 0 15
-9 0 -8 5 -16 10 -16 6 -1 15 -2 22 -3 7 0 17 -10 23 -21 13 -26 75 -34 75
-11 0 9 -4 16 -10 16 -5 0 -10 7 -10 15 0 18 29 19 50 2 8 -7 16 -25 17 -41 3
-35 10 -43 25 -28 16 16 28 15 28 -2 0 -7 7 -19 16 -27 13 -10 17 -10 26 2 8
11 9 10 4 -4 -3 -10 -6 -27 -6 -38 0 -12 -7 -19 -18 -19 -28 0 -34 -11 -17
-30 12 -13 13 -23 6 -41 -10 -24 -11 -21 -15 24 -1 18 -28 25 -53 14 -17 -7
-26 -6 -38 7 -9 9 -22 16 -28 16 -7 0 -1 -10 13 -21 17 -15 19 -19 7 -15 -12
4 -16 2 -11 -6 4 -6 0 -16 -9 -22 -8 -7 -17 -22 -19 -35 -3 -23 -5 -22 -52 21
-32 29 -47 49 -42 57 5 7 15 10 25 6 12 -5 13 -4 4 6 -10 10 -16 9 -29 -2 -14
-11 -18 -11 -28 1 -6 8 -20 20 -31 26 -28 16 -31 51 -6 59 12 3 21 15 21 25 0
10 4 20 9 22 5 2 11 12 13 23 1 11 8 23 13 27 6 5 5 8 -3 8 -8 0 -16 -10 -19
-21 -5 -18 -11 -20 -42 -16 -20 3 -46 9 -58 13 -29 8 -30 -8 -1 -49 l22 -32
-27 24 c-15 14 -27 30 -27 38 0 7 -4 13 -8 13 -13 0 -52 36 -52 48 0 5 -6 12
-14 15 -8 3 -14 15 -13 25 2 25 27 17 27 -9 0 -20 15 -26 25 -9 3 6 2 10 -3
10 -6 0 -7 14 -2 35 4 19 4 36 -1 39 -5 2 -4 3 3 2 7 -1 14 -12 16 -24z m859
-44 c-7 -4 -9 -8 -4 -9 4 -1 12 -3 17 -4 6 -1 15 -3 20 -4 6 0 10 -6 10 -12 0
-6 -7 -8 -16 -5 -8 3 -12 2 -9 -4 3 -6 1 -10 -6 -10 -7 0 -10 -3 -6 -6 10 -11
47 7 47 23 0 12 3 13 14 4 10 -8 16 -9 21 -1 11 19 23 10 27 -20 3 -22 1 -29
-8 -26 -8 3 -11 0 -7 -10 3 -7 13 -14 23 -14 26 0 31 -36 9 -56 -11 -10 -19
-12 -19 -6 0 15 -56 16 -65 2 -3 -6 -18 -7 -33 -4 -15 3 -35 7 -45 8 -21 3
-47 26 -29 26 7 0 12 7 12 16 0 10 6 14 15 10 8 -3 15 -1 15 4 0 6 -7 10 -15
10 -13 0 -13 3 -3 21 11 17 10 23 -9 39 -21 16 -21 19 -5 26 9 4 21 6 25 5 4
0 10 6 14 15 4 12 7 13 14 3 5 -8 3 -17 -4 -21z m-527 2 c0 -5 -2 -10 -4 -10
-3 0 -8 5 -11 10 -3 6 -1 10 4 10 6 0 11 -4 11 -10z m-40 -44 c0 -3 -4 -8 -10
-11 -5 -3 -10 -1 -10 4 0 6 5 11 10 11 6 0 10 -2 10 -4z m343 -26 c-6 -21 -25
-28 -20 -7 2 10 16 26 24 27 0 0 -1 -9 -4 -20z m-186 -22 c-3 -7 -5 -2 -5 12
0 14 2 19 5 13 2 -7 2 -19 0 -25z m304 -5 c13 -16 12 -17 -3 -4 -17 13 -22 21
-14 21 2 0 10 -8 17 -17z m-3563 -33 c7 -11 9 -20 4 -20 -10 0 -32 22 -32 32
0 15 15 8 28 -12z m1408 -6 c-3 -9 -6 -24 -6 -35 0 -26 -11 -23 -34 8 l-19 26
24 -6 c23 -6 23 -5 5 8 -19 14 -19 15 8 15 22 0 27 -4 22 -16z m1914 5 c0 -6
-7 -9 -15 -5 -8 3 -15 1 -15 -4 0 -6 -4 -10 -10 -10 -5 0 -7 7 -4 15 7 17 44
21 44 4z m214 -4 c-4 -8 -11 -12 -16 -9 -6 4 -5 10 3 15 19 12 19 11 13 -6z
m-2259 -33 c-8 -8 -25 10 -19 20 4 6 9 5 15 -3 4 -7 6 -15 4 -17z m2365 -12
c-19 -13 -30 -13 -30 0 0 6 10 10 23 10 18 0 19 -2 7 -10z m-2070 -17 c0 -22
-77 -93 -165 -152 -38 -26 -90 -62 -115 -80 -25 -18 -67 -47 -95 -66 -27 -18
-66 -49 -84 -69 -19 -20 -38 -36 -41 -36 -4 0 -4 17 -1 38 6 39 55 93 126 137
94 59 131 84 182 123 31 23 61 42 67 42 6 1 31 19 56 40 48 43 70 50 70 23z
m1887 -39 c-3 -3 -12 -4 -19 -1 -8 3 -5 6 6 6 11 1 17 -2 13 -5z m8 -24 c-3
-5 -11 -10 -16 -10 -6 0 -7 5 -4 10 3 6 11 10 16 10 6 0 7 -4 4 -10z m-226
-76 c22 0 38 3 35 8 -3 4 2 8 10 8 18 0 21 -16 6 -25 -5 -3 -10 -15 -10 -25 0
-13 6 -18 20 -15 21 4 27 -9 10 -20 -5 -3 -10 -1 -10 5 0 6 -4 9 -9 6 -4 -3
-17 2 -27 10 -14 11 -15 17 -6 20 6 3 10 10 6 15 -7 12 -54 1 -76 -18 -21 -19
-32 -3 -35 52 l-2 40 24 -30 c20 -24 33 -30 64 -31z m-2949 6 c-19 -13 -30
-13 -30 0 0 6 10 10 23 10 18 0 19 -2 7 -10z m580 0 c13 -8 13 -10 -2 -10 -9
0 -19 -9 -23 -20 -5 -15 -9 -17 -19 -8 -10 9 -9 15 3 29 19 21 22 21 41 9z
m2261 -73 c-1 -12 -15 -9 -19 4 -3 6 1 10 8 8 6 -3 11 -8 11 -12z m-2276 -57
c3 -5 2 -10 -4 -10 -5 0 -13 5 -16 10 -3 6 -2 10 4 10 5 0 13 -4 16 -10z
m-315 -20 c-8 -5 -18 -6 -24 -3 -5 4 -1 10 10 13 24 9 34 2 14 -10z m60 -58
c0 -4 -5 -13 -12 -20 -9 -9 -9 -12 0 -12 7 0 12 -5 12 -11 0 -6 -6 -9 -14 -6
-7 3 -18 1 -23 -4 -5 -5 -9 -1 -9 10 0 11 3 18 7 15 4 -2 10 5 14 16 6 19 25
28 25 12z m2830 -27 c-25 -27 -32 -26 -37 5 -2 16 3 20 29 20 l31 0 -23 -25z
m-2404 -102 c-4 -43 -16 -105 -26 -138 -11 -33 -35 -113 -55 -177 -34 -113
-44 -128 -73 -110 -10 7 -9 17 2 53 7 24 21 76 30 115 9 40 35 119 57 175 56
143 63 159 68 159 2 0 1 -35 -3 -77z m2359 67 c-3 -5 -11 -10 -16 -10 -6 0 -7
5 -4 10 3 6 11 10 16 10 6 0 7 -4 4 -10z m-2539 -29 c-11 -17 -25 -13 -21 7 2
9 4 19 4 22 1 2 6 -1 12 -7 6 -6 8 -16 5 -22z m-286 -66 c0 -17 -4 -23 -15
-19 -11 5 -12 10 -2 25 15 25 17 24 17 -6z m79 -1 c-6 -8 -17 -14 -24 -14 -6
0 -12 6 -12 14 0 8 11 14 24 14 19 0 21 -3 12 -14z m201 -4 c13 -8 13 -10 -2
-10 -9 0 -20 5 -23 10 -8 13 5 13 25 0z m-79 -133 c-8 -8 -15 -5 -26 9 -13 17
-12 21 8 38 22 18 22 18 25 -9 2 -15 -1 -32 -7 -38z"/>
<path d="M1115 2957 c-19 -15 -19 -15 5 -40 19 -19 31 -24 52 -20 60 12 305
-30 393 -67 40 -17 78 -20 91 -7 4 3 -1 18 -10 32 -24 36 -2 31 28 -7 19 -25
28 -30 37 -21 15 15 3 34 -45 72 -38 30 -63 33 -52 5 7 -20 2 -18 -47 13 -46
30 -61 32 -247 39 -69 2 -138 7 -155 10 -18 3 -38 0 -50 -9z"/>
<path d="M2105 2911 c-3 -3 -16 -6 -28 -6 -41 -2 -104 -36 -116 -62 -15 -33
-7 -41 18 -19 13 11 25 15 33 9 7 -4 121 -11 253 -14 191 -5 250 -9 289 -23
40 -15 50 -15 58 -4 7 10 11 9 23 -6 12 -16 18 -17 27 -8 9 9 5 19 -18 43 -26
27 -73 59 -89 59 -3 0 -5 -9 -5 -20 0 -11 4 -20 8 -20 5 0 17 -7 28 -16 18
-14 18 -15 -6 -8 -14 3 -32 12 -40 19 -25 22 -118 44 -249 60 -181 22 -181 22
-186 16z"/>
<path d="M1939 2894 c-38 -20 -55 -42 -41 -56 8 -8 19 -4 42 16 17 14 36 26
40 26 5 0 7 7 4 15 -7 18 -10 17 -45 -1z"/>
<path d="M1380 2716 c0 -10 9 -16 24 -16 13 0 63 -11 112 -25 69 -21 89 -23
95 -13 17 26 -41 47 -173 63 -50 6 -58 5 -58 -9z"/>
<path d="M2124 2695 c-9 -22 -3 -25 53 -35 l48 -8 -40 -2 c-67 -4 -100 -14
-103 -33 -4 -22 27 -35 39 -16 9 16 94 19 170 6 l47 -8 6 -48 c7 -50 42 -107
79 -128 12 -7 41 -12 64 -13 35 0 48 6 73 33 18 17 40 51 50 75 11 23 24 42
30 42 5 0 10 6 10 14 0 9 -19 16 -58 20 -32 4 -101 15 -153 25 -82 15 -94 20
-97 39 -2 12 -6 22 -10 22 -7 0 -115 16 -170 25 -24 5 -34 2 -38 -10z"/>
<path d="M1193 2685 c-3 -9 -3 -18 0 -22 3 -3 45 -9 94 -15 121 -12 133 -16
133 -36 0 -9 13 -45 30 -80 23 -50 37 -66 64 -77 79 -33 123 -6 151 90 21 72
16 79 -85 99 -60 12 -354 56 -375 56 -3 0 -8 -7 -12 -15z"/>
<path d="M3175 2630 c-32 -12 -103 -111 -124 -171 -21 -57 -18 -79 8 -79 42 0
54 -51 21 -93 -25 -31 -26 -60 -4 -55 25 5 54 48 60 90 5 30 2 41 -18 61 -13
13 -30 26 -38 29 -20 6 53 130 98 168 43 36 51 36 86 9 41 -33 64 -7 26 31
-21 21 -77 26 -115 10z"/>
<path d="M1321 2481 c-33 -9 -39 -31 -9 -31 39 0 68 12 68 26 0 15 -19 16 -59
5z"/>
<path d="M2173 2440 c-32 -14 -41 -23 -37 -35 5 -12 14 -15 33 -10 37 9 71 33
71 50 0 19 -15 18 -67 -5z"/>
<path d="M1751 2386 c-16 -19 -79 -182 -92 -234 -5 -24 -7 -60 -3 -79 9 -47
72 -113 107 -113 35 0 34 13 0 35 -16 10 -36 27 -45 39 -35 42 -15 176 42 282
16 31 30 63 30 70 0 18 -24 18 -39 0z"/>
<path d="M1955 1943 c-27 -3 -78 -12 -335 -57 -85 -14 -88 -30 -21 -118 89
-117 164 -157 276 -145 78 8 119 31 209 122 112 110 142 176 90 195 -24 10
-156 11 -219 3z m185 -42 c0 -11 -88 -60 -150 -83 -51 -19 -168 -38 -232 -38
-67 0 -113 17 -126 45 -10 23 -9 25 16 31 15 3 34 8 42 11 27 9 314 41 383 42
37 0 67 -3 67 -8z"/>
<path d="M3140 1491 c0 -6 4 -13 10 -16 6 -3 7 1 4 9 -7 18 -14 21 -14 7z"/>
<path d="M3010 1291 c0 -5 5 -13 10 -16 6 -3 10 -2 10 4 0 5 -4 13 -10 16 -5
3 -10 2 -10 -4z"/>
<path d="M3223 1144 c-5 -13 -8 -13 -15 -2 -7 9 -8 8 -4 -6 4 -10 2 -24 -3
-30 -6 -7 -3 -16 6 -25 13 -12 14 -11 9 5 -3 10 -1 26 5 34 8 12 9 10 4 -7 -5
-17 -2 -23 9 -23 13 0 14 5 6 26 -6 14 -8 30 -4 35 3 5 3 9 -1 9 -3 0 -8 -7
-12 -16z"/>
<path d="M3426 1002 c-2 -4 -1 -14 4 -22 7 -11 12 -12 21 -3 6 6 8 16 5 22 -8
13 -23 14 -30 3z m24 -12 c0 -5 -2 -10 -4 -10 -3 0 -8 5 -11 10 -3 6 -1 10 4
10 6 0 11 -4 11 -10z"/>
<path d="M3410 961 c0 -5 5 -13 10 -16 6 -3 10 -2 10 4 0 5 -4 13 -10 16 -5 3
-10 2 -10 -4z"/>
<path d="M3350 951 c0 -6 5 -21 11 -35 11 -23 13 -24 35 -9 19 12 22 19 13 29
-14 17 -32 8 -25 -12 3 -8 1 -14 -4 -14 -6 0 -10 9 -10 19 0 11 -4 23 -10 26
-5 3 -10 2 -10 -4z"/>
<path d="M3436 908 c3 -4 9 -8 15 -8 5 0 9 4 9 8 0 5 -7 9 -15 9 -8 0 -12 -4
-9 -9z"/>
<path d="M3470 899 c0 -5 5 -7 10 -4 6 3 10 8 10 11 0 2 -4 4 -10 4 -5 0 -10
-5 -10 -11z"/>
<path d="M3425 870 c-21 -9 -21 -9 8 -15 9 -2 15 0 12 5 -3 5 1 11 7 13 7 3 9
5 3 6 -5 0 -19 -4 -30 -9z"/>
<path d="M4050 1110 c0 -5 5 -10 11 -10 5 0 7 5 4 10 -3 6 -8 10 -11 10 -2 0
-4 -4 -4 -10z"/>
<path d="M4120 1080 c-13 -8 -13 -10 2 -10 9 0 20 5 23 10 8 13 -5 13 -25 0z"/>
<path d="M4123 1043 c9 -2 23 -2 30 0 6 3 -1 5 -18 5 -16 0 -22 -2 -12 -5z"/>
<path d="M4170 1013 c12 -25 25 -29 36 -11 5 7 3 8 -5 4 -7 -5 -19 0 -27 10
-14 18 -14 18 -4 -3z"/>
<path d="M884 2711 c4 -6 22 -18 39 -27 30 -14 31 -14 12 1 -30 25 -59 39 -51
26z"/>
<path d="M827 2703 c-4 -3 -7 -11 -7 -17 0 -6 5 -5 12 2 6 6 9 14 7 17 -3 3
-9 2 -12 -2z"/>
<path d="M75 2650 c-3 -5 -1 -10 4 -10 6 0 11 5 11 10 0 6 -2 10 -4 10 -3 0
-8 -4 -11 -10z"/>
<path d="M4334 2641 c3 -5 15 -11 26 -14 17 -4 19 -3 9 9 -12 15 -44 20 -35 5z"/>
<path d="M4405 2629 c-4 -6 0 -9 10 -7 10 2 20 -3 23 -11 3 -10 0 -12 -12 -8
-15 6 -15 4 1 -18 19 -25 33 -32 33 -15 0 6 -4 10 -10 10 -5 0 -10 5 -10 10 0
6 7 10 15 10 8 0 15 -5 15 -12 0 -6 3 -8 6 -5 8 8 -37 57 -53 57 -6 0 -15 -5
-18 -11z"/>
<path d="M50 2621 c0 -5 5 -13 10 -16 6 -3 10 -2 10 4 0 5 -4 13 -10 16 -5 3
-10 2 -10 -4z"/>
<path d="M963 2611 c0 -11 5 -18 9 -15 4 3 5 11 1 19 -7 21 -12 19 -10 -4z"/>
<path d="M148 2585 c2 -14 6 -25 8 -25 2 0 4 11 4 25 0 14 -4 25 -9 25 -4 0
-6 -11 -3 -25z"/>
<path d="M260 2596 c0 -8 -6 -16 -12 -19 -9 -3 -7 -9 7 -20 24 -18 33 -14 15
8 -11 14 -7 19 13 16 13 -2 7 17 -8 23 -9 3 -15 0 -15 -8z"/>
<path d="M46 2586 c3 -8 13 -17 22 -21 13 -5 13 -2 -3 15 -21 24 -26 25 -19 6z"/>
<path d="M12 2577 c-8 -10 -6 -13 7 -13 11 0 17 6 14 13 -3 7 -6 13 -8 13 -1
0 -7 -6 -13 -13z"/>
<path d="M982 2575 c-11 -12 -10 -15 3 -15 8 0 15 7 15 15 0 18 -2 18 -18 0z"/>
<path d="M4380 2530 c-7 -22 -10 -43 -7 -47 4 -3 7 3 7 15 0 11 4 23 9 26 11
7 21 46 12 46 -4 0 -14 -18 -21 -40z"/>
<path d="M167 2553 c-14 -13 -6 -25 8 -13 18 15 20 -1 3 -19 -11 -11 -9 -11
10 -2 26 14 28 26 6 35 -19 7 -19 7 -27 -1z"/>
<path d="M940 2531 c0 -13 7 -18 25 -18 14 0 27 3 30 7 2 4 -7 6 -21 4 -19 -2
-24 1 -20 12 3 8 1 14 -4 14 -6 0 -10 -8 -10 -19z"/>
<path d="M1021 2534 c0 -11 3 -14 6 -6 3 7 2 16 -1 19 -3 4 -6 -2 -5 -13z"/>
<path d="M4114 2539 c-3 -6 -1 -15 6 -19 10 -6 9 -9 -1 -13 -9 -3 -10 -6 -2
-6 6 -1 15 4 18 9 5 8 11 7 21 -1 10 -8 14 -8 14 0 0 6 -11 13 -25 17 -14 3
-22 10 -19 15 3 5 3 9 0 9 -3 0 -8 -5 -12 -11z"/>
<path d="M125 2530 c-3 -5 -1 -10 4 -10 6 0 11 5 11 10 0 6 -2 10 -4 10 -3 0
-8 -4 -11 -10z"/>
<path d="M255 2520 c3 -5 8 -10 11 -10 2 0 4 5 4 10 0 6 -5 10 -11 10 -5 0 -7
-4 -4 -10z"/>
<path d="M4080 2520 c0 -5 5 -10 11 -10 5 0 7 5 4 10 -3 6 -8 10 -11 10 -2 0
-4 -4 -4 -10z"/>
<path d="M25 2500 c-3 -5 -1 -10 4 -10 6 0 11 5 11 10 0 6 -2 10 -4 10 -3 0
-8 -4 -11 -10z"/>
<path d="M230 2499 c0 -5 5 -7 10 -4 6 3 10 8 10 11 0 2 -4 4 -10 4 -5 0 -10
-5 -10 -11z"/>
<path d="M134 2489 c-3 -6 -2 -15 3 -20 5 -5 9 -1 9 11 0 23 -2 24 -12 9z"/>
<path d="M4090 2481 c0 -25 6 -27 13 -6 4 8 2 17 -3 20 -6 4 -10 -3 -10 -14z"/>
<path d="M4307 2489 c7 -9 9 -19 5 -24 -4 -4 3 -2 16 4 12 6 22 17 22 24 0 8
-3 7 -9 -2 -8 -13 -12 -13 -28 0 -16 12 -17 12 -6 -2z"/>
<path d="M4460 2490 c0 -5 -16 -8 -35 -6 -27 2 -32 0 -24 -11 6 -7 15 -11 19
-8 5 3 16 2 25 -1 13 -5 16 -15 12 -40 -3 -19 -2 -34 4 -34 5 0 9 18 9 39 0
22 3 46 6 55 3 9 1 16 -5 16 -6 0 -11 -4 -11 -10z"/>
<path d="M170 2482 c0 -7 5 -12 10 -12 6 0 10 -6 10 -14 0 -24 13 -25 45 -4
27 18 28 19 5 12 -14 -3 -28 -12 -32 -18 -5 -7 -8 -6 -8 5 0 8 6 21 13 29 10
12 9 12 -4 2 -12 -9 -18 -9 -27 0 -9 9 -12 9 -12 0z"/>
<path d="M4031 2474 c0 -11 3 -14 6 -6 3 7 2 16 -1 19 -3 4 -6 -2 -5 -13z"/>
<path d="M4053 2470 c1 -11 7 -20 14 -20 11 0 11 5 3 20 -6 11 -13 20 -15 20
-2 0 -3 -9 -2 -20z"/>
<path d="M4280 2480 c0 -5 5 -10 11 -10 5 0 7 5 4 10 -3 6 -8 10 -11 10 -2 0
-4 -4 -4 -10z"/>
<path d="M20 2470 c0 -5 5 -10 10 -10 6 0 10 5 10 10 0 6 -4 10 -10 10 -5 0
-10 -4 -10 -10z"/>
<path d="M593 2465 c0 -8 6 -15 13 -15 8 0 11 6 8 15 -4 8 -9 15 -13 15 -4 0
-8 -7 -8 -15z"/>
<path d="M930 2476 c0 -2 7 -7 16 -10 8 -3 12 -2 9 4 -6 10 -25 14 -25 6z"/>
<path d="M268 2439 c-4 -22 -2 -25 14 -21 11 3 15 8 10 11 -5 3 -11 13 -14 21
-3 10 -6 6 -10 -11z"/>
<path d="M4333 2444 c-5 -13 -7 -13 -14 -2 -6 9 -8 4 -7 -14 1 -15 6 -24 10
-22 4 3 8 1 8 -5 0 -5 -4 -13 -10 -16 -5 -3 -10 -10 -10 -16 0 -5 8 -1 18 9
12 11 16 21 10 29 -6 7 -5 20 2 32 6 12 8 21 5 21 -3 0 -8 -7 -12 -16z"/>
<path d="M4540 2456 c0 -2 7 -7 16 -10 8 -3 12 -2 9 4 -6 10 -25 14 -25 6z"/>
<path d="M149 2426 c14 -15 26 -26 28 -26 9 0 -24 40 -37 45 -8 4 -4 -5 9 -19z"/>
<path d="M395 2440 c3 -5 8 -10 11 -10 2 0 4 5 4 10 0 6 -5 10 -11 10 -5 0 -7
-4 -4 -10z"/>
<path d="M730 2423 c0 -22 -2 -25 -10 -13 -8 12 -10 11 -10 -7 0 -13 5 -23 10
-23 6 0 10 1 10 3 0 1 4 17 9 35 6 20 6 32 0 32 -5 0 -9 -12 -9 -27z"/>
<path d="M4377 2431 c-10 -12 -9 -13 2 -7 8 5 16 4 21 -4 5 -8 9 -6 12 7 6 24
-17 26 -35 4z"/>
<path d="M4491 2443 c-1 -6 -4 -20 -7 -30 -5 -17 -5 -17 6 0 6 10 9 23 6 30
-3 9 -5 9 -5 0z"/>
<path d="M656 2425 c4 -8 8 -15 10 -15 2 0 4 7 4 15 0 8 -4 15 -10 15 -5 0 -7
-7 -4 -15z"/>
<path d="M4027 2433 c-11 -11 -8 -33 5 -33 6 0 8 3 5 7 -4 3 -2 12 4 20 11 13
-2 19 -14 6z"/>
<path d="M4070 2436 c0 -2 7 -7 16 -10 8 -3 12 -2 9 4 -6 10 -25 14 -25 6z"/>
<path d="M4512 2420 c0 -14 2 -19 5 -12 2 6 2 18 0 25 -3 6 -5 1 -5 -13z"/>
<path d="M92 2405 c-7 -15 -8 -24 -2 -20 5 3 10 0 10 -7 0 -8 5 -6 11 5 6 10
6 23 1 32 -7 13 -10 11 -20 -10z"/>
<path d="M570 2411 c0 -5 5 -13 10 -16 6 -3 10 -2 10 4 0 5 -4 13 -10 16 -5 3
-10 2 -10 -4z"/>
<path d="M3961 2404 c0 -11 3 -14 6 -6 3 7 2 16 -1 19 -3 4 -6 -2 -5 -13z"/>
<path d="M484 2401 c4 -5 -2 -14 -11 -20 -11 -6 -13 -11 -5 -11 8 0 10 -5 6
-12 -4 -7 2 -5 13 5 11 9 25 17 31 17 21 0 13 -19 -15 -34 -16 -8 -23 -15 -18
-16 6 0 21 7 33 16 20 14 27 12 23 -9 -1 -5 3 -6 9 -2 6 3 8 11 5 16 -7 10 -1
11 55 13 28 1 35 5 36 21 1 18 1 19 -3 1 -4 -16 -7 -17 -14 -5 -5 8 -9 10 -9
4 0 -16 -72 -10 -109 9 -18 10 -30 13 -27 7z"/>
<path d="M3987 2403 c-2 -4 -3 -19 -2 -33 2 -14 4 -30 4 -37 1 -6 10 -9 23 -5
20 5 20 6 3 12 -10 4 -19 16 -20 28 -1 18 2 21 19 16 12 -4 19 -5 16 -2 -28
22 -39 28 -43 21z"/>
<path d="M4377 2397 c-3 -8 -1 -20 4 -28 6 -10 9 -7 9 14 0 29 -5 35 -13 14z"/>
<path d="M21 2384 c0 -11 3 -14 6 -6 3 7 2 16 -1 19 -3 4 -6 -2 -5 -13z"/>
<path d="M226 2384 c-5 -14 -4 -15 9 -4 17 14 19 20 6 20 -5 0 -12 -7 -15 -16z"/>
<path d="M425 2390 c3 -5 8 -10 11 -10 2 0 4 5 4 10 0 6 -5 10 -11 10 -5 0 -7
-4 -4 -10z"/>
<path d="M660 2376 c0 -13 -6 -27 -12 -30 -7 -3 -4 -5 6 -3 13 1 20 10 20 30
1 15 -2 27 -6 27 -4 0 -8 -11 -8 -24z"/>
<path d="M4059 2387 c6 -8 8 -17 4 -21 -4 -4 0 -4 9 -1 9 4 19 14 22 22 5 13
4 14 -9 3 -10 -8 -15 -9 -15 -1 0 6 -5 11 -11 11 -8 0 -9 -4 0 -13z"/>
<path d="M4120 2390 c0 -5 5 -10 11 -10 5 0 7 5 4 10 -3 6 -8 10 -11 10 -2 0
-4 -4 -4 -10z"/>
<path d="M4423 2385 c-7 -8 -9 -16 -4 -19 5 -3 12 1 15 10 8 22 4 25 -11 9z"/>
<path d="M403 2379 c3 -9 -1 -28 -8 -42 -13 -26 -11 -37 9 -37 6 0 4 5 -4 10
-10 6 -11 10 -2 10 6 0 12 10 12 21 0 18 2 19 15 9 9 -7 18 -10 22 -6 3 3 1 6
-6 6 -7 0 -9 5 -5 13 4 6 4 9 -1 5 -4 -4 -14 0 -22 10 -13 15 -14 15 -10 1z"/>
<path d="M4496 2381 c-4 -7 -5 -15 -2 -18 9 -9 19 4 14 18 -4 11 -6 11 -12 0z"/>
<path d="M4279 2347 c-6 -14 -19 -28 -28 -30 -9 -3 -3 -5 12 -6 17 -1 26 3 22
9 -4 6 -1 18 6 26 6 8 9 17 6 21 -4 3 -12 -6 -18 -20z"/>
<path d="M277 2345 c3 -8 9 -12 14 -9 12 7 11 11 -5 17 -10 4 -13 1 -9 -8z"/>
<path d="M314 2348 c-4 -7 -3 -8 4 -4 7 4 12 2 12 -3 0 -6 -5 -11 -12 -11 -6
0 -9 -2 -6 -5 7 -7 38 5 38 15 0 13 -29 20 -36 8z"/>
<path d="M4478 2353 c18 -7 14 -23 -6 -23 -11 0 -27 -9 -37 -19 -17 -20 -17
-20 20 -1 21 11 43 21 49 24 12 5 -12 26 -29 25 -5 0 -4 -3 3 -6z"/>
<path d="M758 2314 c4 -29 2 -35 -9 -29 -11 6 -12 5 -2 -5 7 -8 15 -12 17 -9
10 10 10 73 0 76 -6 2 -8 -10 -6 -33z"/>
<path d="M455 2331 c-3 -5 -1 -12 5 -16 5 -3 10 1 10 9 0 18 -6 21 -15 7z"/>
<path d="M665 2329 c-28 -6 -26 -7 13 -8 42 -1 53 3 30 11 -7 2 -26 1 -43 -3z"/>
<path d="M420 2321 c0 -6 4 -13 10 -16 6 -3 7 1 4 9 -7 18 -14 21 -14 7z"/>
<path d="M500 2320 c-8 -5 -12 -11 -10 -14 3 -2 14 2 24 10 22 15 10 19 -14 4z"/>
<path d="M4048 2323 c-16 -2 -28 -8 -28 -13 0 -4 10 -6 21 -3 20 6 21 3 16
-23 -3 -16 -4 -23 -1 -16 8 17 21 15 21 -3 0 -8 -4 -15 -8 -15 -4 0 -10 -8
-13 -17 -6 -15 -5 -15 13 1 15 13 20 14 24 4 4 -9 6 -9 6 -1 1 6 -4 15 -9 18
-8 5 -7 11 1 21 10 12 10 15 -2 12 -9 -2 -14 5 -13 20 0 12 0 21 0 21 -1 -1
-13 -4 -28 -6z"/>
<path d="M4556 2321 c-3 -4 6 -6 19 -3 14 2 25 6 25 8 0 8 -39 4 -44 -5z"/>
<path d="M270 2312 c0 -5 7 -9 15 -9 8 0 12 4 9 9 -3 4 -9 8 -15 8 -5 0 -9 -4
-9 -8z"/>
<path d="M535 2310 c-19 -8 -19 -9 3 -9 12 -1 22 4 22 9 0 6 -1 10 -2 9 -2 0
-12 -4 -23 -9z"/>
<path d="M782 2300 c0 -14 2 -19 5 -12 2 6 2 18 0 25 -3 6 -5 1 -5 -13z"/>
<path d="M4216 2305 c-3 -8 -1 -15 4 -15 6 0 10 7 10 15 0 8 -2 15 -4 15 -2 0
-6 -7 -10 -15z"/>
<path d="M683 2292 c-19 -15 -20 -19 -8 -35 7 -11 16 -14 19 -8 4 5 -1 14 -10
19 -15 8 -15 10 1 16 10 3 25 1 34 -6 14 -11 14 -11 3 4 -10 13 -10 17 0 21 9
4 9 6 -2 6 -8 0 -25 -7 -37 -17z"/>
<path d="M1006 2295 c4 -8 11 -15 16 -15 6 0 5 6 -2 15 -7 8 -14 15 -16 15 -2
0 -1 -7 2 -15z"/>
<path d="M4511 2294 c0 -11 3 -14 6 -6 3 7 2 16 -1 19 -3 4 -6 -2 -5 -13z"/>
<path d="M465 2291 c-3 -6 -14 -8 -25 -6 -16 3 -20 -2 -20 -21 0 -29 14 -31
33 -4 8 11 16 18 19 15 2 -3 5 2 5 10 0 17 -3 19 -12 6z m-23 -33 c-7 -7 -12
-8 -12 -2 0 14 12 26 19 19 2 -3 -1 -11 -7 -17z"/>
<path d="M807 2294 c7 -3 10 -11 7 -19 -7 -16 12 -29 21 -15 8 13 -13 40 -29
39 -7 0 -7 -2 1 -5z"/>
<path d="M3980 2289 c0 -5 5 -7 10 -4 6 3 10 8 10 11 0 2 -4 4 -10 4 -5 0 -10
-5 -10 -11z"/>
<path d="M4030 2290 c-9 -6 -10 -10 -3 -10 6 0 15 5 18 10 8 12 4 12 -15 0z"/>
<path d="M4535 2290 c3 -5 8 -10 11 -10 2 0 4 5 4 10 0 6 -5 10 -11 10 -5 0
-7 -4 -4 -10z"/>
<path d="M974 2272 c-19 -14 -19 -15 0 -8 11 4 23 2 26 -5 4 -6 10 -7 13 -3 3
5 -1 14 -7 20 -9 9 -17 8 -32 -4z"/>
<path d="M3925 2280 c4 -6 11 -8 16 -5 14 9 11 15 -7 15 -8 0 -12 -5 -9 -10z"/>
<path d="M4260 2275 c14 -8 19 -14 11 -15 -8 0 -12 -3 -8 -6 3 -3 11 -3 17 1
15 9 -7 35 -29 35 -11 -1 -8 -5 9 -15z"/>
<path d="M330 2270 c8 -5 20 -10 25 -10 6 0 3 5 -5 10 -8 5 -19 10 -25 10 -5
0 -3 -5 5 -10z"/>
<path d="M560 2269 c0 -5 5 -7 10 -4 6 3 10 8 10 11 0 2 -4 4 -10 4 -5 0 -10
-5 -10 -11z"/>
<path d="M396 2254 c-8 -21 -8 -21 12 -29 13 -5 14 -3 5 6 -6 6 -9 18 -6 25 3
8 3 14 0 14 -3 0 -8 -7 -11 -16z"/>
<path d="M4408 2263 c6 -2 18 -2 25 0 6 3 1 5 -13 5 -14 0 -19 -2 -12 -5z"/>
<path d="M4568 2263 c7 -3 16 -2 19 1 4 3 -2 6 -13 5 -11 0 -14 -3 -6 -6z"/>
<path d="M731 2244 c0 -11 3 -14 6 -6 3 7 2 16 -1 19 -3 4 -6 -2 -5 -13z"/>
<path d="M350 2241 c0 -5 7 -12 16 -15 14 -5 15 -4 4 9 -14 17 -20 19 -20 6z"/>
<path d="M454 2235 c-4 -8 -11 -12 -18 -8 -6 3 -7 2 -3 -2 15 -17 37 -13 37 6
0 23 -8 25 -16 4z"/>
<path d="M557 2239 c7 -7 15 -10 18 -7 3 3 -2 9 -12 12 -14 6 -15 5 -6 -5z"/>
<path d="M4568 2233 c6 -2 18 -2 25 0 6 3 1 5 -13 5 -14 0 -19 -2 -12 -5z"/>
<path d="M488 2223 c7 -3 16 -2 19 1 4 3 -2 6 -13 5 -11 0 -14 -3 -6 -6z"/>
<path d="M750 2222 c0 -6 6 -13 13 -15 8 -4 7 -6 -3 -6 -9 -1 -21 4 -28 11 -9
9 -12 9 -12 0 0 -7 5 -12 12 -12 22 0 -2 -13 -39 -21 l-38 -8 40 5 c22 3 54 6
72 7 17 1 34 5 38 9 4 4 -3 4 -16 1 -14 -4 -20 -2 -16 4 4 6 0 16 -8 23 -9 8
-15 8 -15 2z"/>
<path d="M4246 2215 c-3 -8 -1 -15 4 -15 6 0 10 7 10 15 0 8 -2 15 -4 15 -2 0
-6 -7 -10 -15z"/>
<path d="M4295 2220 c-3 -6 1 -7 9 -4 18 7 21 14 7 14 -6 0 -13 -4 -16 -10z"/>
<path d="M5 2209 c-4 -6 -5 -12 -2 -15 2 -3 7 2 10 11 7 17 1 20 -8 4z"/>
<path d="M399 2204 c6 -12 7 -24 4 -28 -3 -3 -1 -6 5 -6 16 0 15 12 -4 36 -15
18 -15 18 -5 -2z"/>
<path d="M4070 2211 c0 -5 7 -22 15 -37 9 -17 15 -22 15 -13 0 9 7 22 15 29 8
7 15 18 15 24 0 6 -4 5 -9 -3 -13 -20 -44 -24 -37 -5 3 8 1 14 -4 14 -6 0 -10
-4 -10 -9z"/>
<path d="M4215 2198 c-18 -56 -23 -89 -12 -85 7 3 11 10 9 17 -1 6 2 27 7 46
9 31 6 50 -4 22z"/>
<path d="M454 2188 c-5 -7 -2 -9 8 -5 9 3 21 0 27 -6 8 -8 11 -8 11 0 0 6 -7
14 -16 17 -21 8 -22 8 -30 -6z"/>
<path d="M673 2193 c9 -2 23 -2 30 0 6 3 -1 5 -18 5 -16 0 -22 -2 -12 -5z"/>
<path d="M820 2178 c0 -10 -10 -13 -35 -10 -47 6 -94 -6 -75 -18 9 -6 17 -5
21 2 5 7 24 9 52 5 34 -5 46 -3 51 8 3 8 1 17 -4 20 -6 4 -10 0 -10 -7z"/>
<path d="M4050 2186 c0 -2 8 -10 18 -17 15 -13 16 -12 3 4 -13 16 -21 21 -21
13z"/>
<path d="M526 2171 c-4 -7 -5 -15 -2 -18 9 -9 19 4 14 18 -4 11 -6 11 -12 0z"/>
<path d="M600 2170 c0 -5 5 -10 11 -10 5 0 7 5 4 10 -3 6 -8 10 -11 10 -2 0
-4 -4 -4 -10z"/>
<path d="M428 2153 c7 -3 16 -2 19 1 4 3 -2 6 -13 5 -11 0 -14 -3 -6 -6z"/>
<path d="M191 2131 c-12 -11 -18 -22 -12 -25 5 -3 12 0 15 6 3 9 8 8 16 -4 6
-10 16 -18 21 -18 6 0 3 7 -6 16 -9 9 -14 23 -11 30 7 19 3 18 -23 -5z"/>
<path d="M602 2134 c-16 -11 -26 -12 -42 -4 -16 9 -18 8 -14 -5 4 -10 17 -14
39 -12 18 1 31 6 28 11 -3 4 5 5 18 1 13 -3 20 -3 14 2 -5 5 -13 11 -16 15 -3
4 -15 1 -27 -8z"/>
<path d="M4155 2139 c-4 -6 -5 -12 -2 -15 2 -3 7 2 10 11 7 17 1 20 -8 4z"/>
<path d="M4272 2137 c12 -9 14 -17 7 -30 -7 -11 -6 -17 1 -17 6 0 13 7 16 15
7 17 -12 45 -30 45 -6 0 -4 -6 6 -13z"/>
<path d="M498 2133 c7 -3 16 -2 19 1 4 3 -2 6 -13 5 -11 0 -14 -3 -6 -6z"/>
<path d="M785 2128 c-19 -11 -19 -11 0 -19 19 -7 18 -8 -2 -8 -13 -1 -23 -5
-23 -9 0 -9 39 -11 41 -2 2 13 6 50 5 50 -1 0 -10 -6 -21 -12z"/>
<path d="M4050 2125 c-6 -8 -9 -18 -6 -23 8 -14 45 -22 52 -11 3 5 -6 9 -20 9
-30 0 -33 8 -8 26 9 7 12 14 6 14 -6 0 -17 -7 -24 -15z"/>
<path d="M381 2104 c0 -11 3 -14 6 -6 3 7 2 16 -1 19 -3 4 -6 -2 -5 -13z"/>
<path d="M4110 2099 c0 -5 5 -7 10 -4 6 3 10 8 10 11 0 2 -4 4 -10 4 -5 0 -10
-5 -10 -11z"/>
<path d="M4240 2100 c0 -5 5 -10 11 -10 5 0 7 5 4 10 -3 6 -8 10 -11 10 -2 0
-4 -4 -4 -10z"/>
<path d="M330 2091 c0 -5 6 -14 14 -20 11 -9 15 -8 20 4 3 9 2 13 -4 10 -6 -3
-10 -1 -10 4 0 6 -4 11 -10 11 -5 0 -10 -4 -10 -9z"/>
<path d="M590 2080 c0 -5 5 -10 11 -10 5 0 7 5 4 10 -3 6 -8 10 -11 10 -2 0
-4 -4 -4 -10z"/>
<path d="M3996 2081 c-4 -5 3 -7 14 -4 23 6 26 13 6 13 -8 0 -17 -4 -20 -9z"/>
<path d="M4203 2070 c-1 -11 2 -20 8 -20 5 0 9 9 9 20 0 11 -4 20 -8 20 -4 0
-8 -9 -9 -20z"/>
<path d="M4561 2074 c0 -11 3 -14 6 -6 3 7 2 16 -1 19 -3 4 -6 -2 -5 -13z"/>
<path d="M4100 2070 c0 -5 7 -7 15 -4 8 4 15 8 15 10 0 2 -7 4 -15 4 -8 0 -15
-4 -15 -10z"/>
<path d="M746 2055 c-3 -8 -1 -15 4 -15 13 0 22 18 11 24 -5 3 -11 -1 -15 -9z"/>
<path d="M4174 2044 c3 -8 2 -12 -4 -9 -6 3 -10 2 -10 -3 0 -14 11 -21 25 -16
14 6 8 44 -7 44 -6 0 -7 -7 -4 -16z"/>
<path d="M4222 2040 c-18 -29 -15 -38 4 -12 9 13 14 25 12 27 -2 2 -9 -5 -16
-15z"/>
<path d="M3144 2041 c4 -6 13 -11 21 -11 13 0 30 -28 26 -44 -2 -9 18 -26 32
-26 4 0 7 5 7 10 0 6 -7 10 -16 10 -8 0 -13 4 -10 9 10 16 -18 56 -43 59 -15
2 -21 0 -17 -7z"/>
<path d="M4415 2029 c-4 -6 -5 -12 -2 -15 2 -3 7 2 10 11 7 17 1 20 -8 4z"/>
<path d="M4592 2020 c0 -14 2 -19 5 -12 2 6 2 18 0 25 -3 6 -5 1 -5 -13z"/>
<path d="M235 2019 c-4 -6 -5 -12 -2 -15 2 -3 7 2 10 11 7 17 1 20 -8 4z"/>
<path d="M724 2013 c4 -28 36 -29 35 -1 -1 17 -3 18 -6 6 -2 -10 -8 -18 -13
-18 -5 0 -7 7 -4 15 4 8 2 15 -4 15 -6 0 -9 -8 -8 -17z"/>
<path d="M4325 2014 c8 -6 12 -14 8 -17 -3 -4 -1 -7 5 -7 16 0 26 20 10 21 -7
1 -2 5 12 9 21 7 19 8 -13 7 -30 -2 -34 -4 -22 -13z"/>
<path d="M3306 1995 c-3 -8 -1 -15 3 -15 5 0 11 7 15 15 3 8 1 15 -3 15 -5 0
-11 -7 -15 -15z"/>
<path d="M3920 2000 c-17 -6 -8 -7 30 -5 30 3 46 2 35 -1 -30 -9 -45 -28 -16
-21 24 6 62 -18 40 -25 -7 -2 -5 -9 5 -17 14 -12 16 -11 16 7 0 11 -6 25 -14
32 -8 6 -12 18 -9 26 4 10 -3 14 -28 13 -19 -1 -45 -5 -59 -9z"/>
<path d="M4020 2000 c0 -9 9 -23 20 -33 11 -9 20 -13 20 -9 0 4 4 2 8 -4 5 -8
12 -5 23 10 16 20 16 22 -1 22 -11 0 -16 -6 -12 -14 7 -20 -34 2 -47 26 -8 14
-10 14 -11 2z"/>
<path d="M4248 1999 c12 -7 22 -16 22 -21 0 -4 6 -8 14 -8 7 0 20 -7 27 -17
13 -15 12 -15 -11 -3 -24 13 -25 12 -7 -7 9 -11 17 -26 18 -34 1 -17 17 29 18
54 1 10 -3 15 -9 12 -5 -3 -15 -3 -22 1 -8 5 -6 10 8 15 15 6 12 7 -11 7 -16
-1 -39 2 -50 6 -14 5 -14 3 3 -5z"/>
<path d="M3170 1969 c0 -16 4 -28 9 -25 8 5 3 56 -5 56 -2 0 -4 -14 -4 -31z"/>
<path d="M3250 1991 c0 -6 5 -13 10 -16 6 -3 10 1 10 9 0 9 -4 16 -10 16 -5 0
-10 -4 -10 -9z"/>
<path d="M4133 1976 c7 -14 13 -23 15 -21 7 6 -9 45 -18 45 -4 0 -3 -11 3 -24z"/>
<path d="M3329 1978 c-3 -30 4 -74 12 -88 6 -10 7 2 3 34 -5 36 -3 50 7 57 11
7 10 9 -3 9 -10 0 -18 -6 -19 -12z"/>
<path d="M4201 1978 c-1 -23 -21 -34 -32 -17 -6 9 -9 10 -9 2 0 -20 21 -26 37
-10 8 8 13 21 10 29 -4 9 -6 8 -6 -4z"/>
<path d="M4221 1968 c0 -16 -5 -28 -10 -28 -5 0 -12 -8 -15 -17 -6 -14 -3 -14
15 3 11 10 24 18 27 16 4 -2 8 2 10 10 3 9 1 9 -6 -1 -8 -11 -11 -8 -15 15
l-4 29 -2 -27z"/>
<path d="M3904 1961 c1 -17 26 -28 26 -11 0 6 -4 9 -9 5 -5 -3 -11 0 -14 7 -2
9 -4 8 -3 -1z"/>
<path d="M4376 1965 c-3 -8 -1 -15 4 -15 6 0 10 5 10 11 0 5 5 7 12 3 7 -4 8
-3 4 4 -10 16 -23 15 -30 -3z"/>
<path d="M3275 1959 c-4 -6 -4 -13 -1 -16 3 -4 6 -1 6 5 0 6 8 13 18 15 15 4
15 5 0 6 -9 0 -20 -4 -23 -10z"/>
<path d="M3491 1940 c0 -18 7 -28 24 -37 14 -6 25 -7 25 -3 0 5 -9 11 -19 15
-11 3 -22 16 -24 28 -4 20 -4 20 -6 -3z"/>
<path d="M4460 1951 c0 -7 -4 -10 -9 -7 -5 4 -7 -4 -3 -16 l5 -22 9 24 c5 12
6 25 3 28 -3 3 -5 0 -5 -7z"/>
<path d="M4482 1955 c4 -4 3 -14 -4 -22 -6 -7 -8 -16 -5 -19 3 -3 10 3 16 15
8 15 8 22 -1 27 -7 4 -10 4 -6 -1z"/>
<path d="M662 1943 c-10 -4 -10 -8 -1 -19 17 -20 5 -28 -21 -14 -11 6 -26 9
-33 6 -7 -2 -4 -5 6 -5 9 -1 17 -6 17 -12 0 -5 4 -8 8 -5 5 3 23 -4 40 -15 18
-10 38 -19 45 -18 6 0 1 5 -13 10 -18 8 -21 12 -11 18 9 6 10 11 2 15 -6 4
-11 2 -11 -3 0 -23 -15 -10 -16 14 -2 25 10 34 19 15 3 -6 4 -5 3 2 -3 14 -16
18 -34 11z"/>
<path d="M4560 1935 c0 -8 2 -15 4 -15 2 0 6 7 10 15 3 8 1 15 -4 15 -6 0 -10
-7 -10 -15z"/>
<path d="M4130 1925 c-7 -9 -11 -17 -8 -20 2 -2 12 4 21 15 9 11 13 20 8 20
-5 0 -14 -7 -21 -15z"/>
<path d="M4070 1920 c0 -5 5 -10 11 -10 5 0 7 5 4 10 -3 6 -8 10 -11 10 -2 0
-4 -4 -4 -10z"/>
<path d="M4270 1921 c0 -6 4 -13 10 -16 6 -3 7 1 4 9 -7 18 -14 21 -14 7z"/>
<path d="M4421 1914 c0 -11 3 -14 6 -6 3 7 2 16 -1 19 -3 4 -6 -2 -5 -13z"/>
<path d="M747 1913 c-4 -3 -7 -11 -7 -17 0 -6 5 -5 12 2 6 6 9 14 7 17 -3 3
-9 2 -12 -2z"/>
<path d="M3365 1910 c-3 -5 -1 -10 4 -10 6 0 11 5 11 10 0 6 -2 10 -4 10 -3 0
-8 -4 -11 -10z"/>
<path d="M3956 1904 c-5 -14 -4 -15 8 -5 11 10 15 8 19 -6 4 -17 5 -16 6 1 1
18 2 18 21 1 23 -21 28 -11 6 11 -20 19 -52 18 -60 -2z"/>
<path d="M4095 1881 c-4 -17 -10 -29 -15 -26 -5 3 -12 0 -16 -6 -4 -8 -3 -9 4
-5 16 10 15 -6 0 -24 -11 -12 -10 -12 4 -1 18 13 44 79 35 87 -3 3 -8 -8 -12
-25z"/>
<path d="M566 1892 c6 -4 10 -17 9 -29 -2 -29 11 -20 17 12 4 20 1 25 -16 25
-12 0 -16 -3 -10 -8z"/>
<path d="M3757 1894 c12 -3 24 -13 27 -22 3 -12 4 -11 3 3 -2 14 -10 21 -27
22 -21 1 -21 1 -3 -3z"/>
<path d="M4050 1891 c0 -10 26 -9 36 2 4 4 -2 7 -14 7 -12 0 -22 -4 -22 -9z"/>
<path d="M605 1880 c-3 -5 -1 -10 4 -10 6 0 11 5 11 10 0 6 -2 10 -4 10 -3 0
-8 -4 -11 -10z"/>
<path d="M3205 1880 c-4 -6 7 -10 27 -9 27 0 30 2 13 9 -27 12 -33 12 -40 0z"/>
<path d="M3710 1875 c0 -8 5 -15 11 -15 8 0 8 -4 1 -12 -8 -10 -3 -13 19 -13
16 0 29 3 29 8 0 4 -6 7 -14 7 -8 0 -18 9 -21 20 -7 23 -25 27 -25 5z"/>
<path d="M4125 1879 c-4 -6 -5 -12 -2 -15 2 -3 7 2 10 11 7 17 1 20 -8 4z"/>
<path d="M4524 1876 c-3 -8 -4 -23 -2 -33 3 -11 6 -6 9 15 6 34 2 42 -7 18z"/>
<path d="M641 1864 c0 -11 3 -14 6 -6 3 7 2 16 -1 19 -3 4 -6 -2 -5 -13z"/>
<path d="M3542 1875 c4 -4 3 -14 -3 -21 -7 -9 -6 -14 3 -20 7 -4 10 -4 6 1 -4
4 -3 14 3 21 7 9 6 14 -3 20 -7 4 -10 4 -6 -1z"/>
<path d="M3581 1870 c6 -4 9 -12 5 -18 -3 -6 -2 -14 4 -17 6 -4 10 -3 9 2 -4
20 2 32 19 36 9 2 2 4 -16 4 -18 0 -28 -3 -21 -7z"/>
<path d="M4272 1857 c-12 -13 -22 -27 -22 -31 0 -4 11 5 25 20 14 15 25 29 25
30 0 8 -7 3 -28 -19z"/>
<path d="M4495 1870 c4 -6 1 -18 -6 -26 -10 -12 -9 -13 5 -8 18 7 22 44 5 44
-5 0 -7 -5 -4 -10z"/>
<path d="M3357 1854 c3 -7 9 -14 14 -14 14 0 10 17 -5 23 -10 4 -13 1 -9 -9z"/>
<path d="M3400 1860 c20 -13 33 -13 25 0 -3 6 -14 10 -23 10 -15 0 -15 -2 -2
-10z"/>
<path d="M3450 1864 c0 -7 27 -34 34 -34 4 0 1 9 -6 20 -12 19 -28 27 -28 14z"/>
<path d="M3980 1860 c0 -13 18 -22 24 -11 3 5 -1 11 -9 15 -8 3 -15 1 -15 -4z"/>
<path d="M4021 1848 c1 -18 2 -19 6 -5 2 9 9 14 15 11 7 -4 8 -2 4 4 -12 20
-26 13 -25 -10z"/>
<path d="M4297 1840 c-23 -22 -25 -28 -10 -24 17 5 49 42 41 49 -2 2 -16 -9
-31 -25z"/>
<path d="M665 1849 c-9 -14 -2 -20 14 -10 8 6 9 11 3 15 -6 3 -14 1 -17 -5z"/>
<path d="M3208 1853 c7 -3 16 -2 19 1 4 3 -2 6 -13 5 -11 0 -14 -3 -6 -6z"/>
<path d="M3635 1850 c3 -5 11 -10 16 -10 6 0 7 5 4 10 -3 6 -11 10 -16 10 -6
0 -7 -4 -4 -10z"/>
<path d="M3957 1839 c4 -13 8 -18 11 -10 2 7 -1 18 -6 23 -8 8 -9 4 -5 -13z"/>
<path d="M4197 1841 c-3 -14 0 -17 14 -14 15 4 17 8 8 19 -15 18 -16 18 -22
-5z"/>
<path d="M3140 1841 c0 -5 7 -14 15 -21 10 -9 15 -9 15 -1 0 6 8 11 18 11 14
0 15 2 2 10 -9 6 -17 5 -22 -3 -6 -9 -8 -9 -8 1 0 6 -4 12 -10 12 -5 0 -10 -4
-10 -9z"/>
<path d="M3255 1840 c-28 -7 -28 -8 -5 -9 14 0 32 4 40 9 17 11 8 11 -35 0z"/>
<path d="M3321 1834 c0 -11 3 -14 6 -6 3 7 2 16 -1 19 -3 4 -6 -2 -5 -13z"/>
<path d="M4157 1836 c-6 -16 1 -26 17 -26 6 0 4 5 -4 10 -10 6 -11 10 -2 10 6
0 12 5 12 10 0 15 -17 12 -23 -4z"/>
<path d="M3380 1825 c-14 -8 -19 -14 -10 -14 8 0 24 6 34 14 25 19 9 19 -24 0z"/>
<path d="M3500 1820 c0 -18 -3 -20 -14 -11 -11 9 -16 5 -25 -20 -13 -38 -14
-76 -2 -83 4 -3 6 5 4 17 -2 12 1 35 7 52 9 22 13 26 20 15 7 -11 10 -7 16 13
3 16 4 31 0 34 -3 4 -6 -4 -6 -17z"/>
<path d="M3811 1824 c0 -11 3 -14 6 -6 3 7 2 16 -1 19 -3 4 -6 -2 -5 -13z"/>
<path d="M4110 1829 c0 -5 5 -7 10 -4 6 3 10 8 10 11 0 2 -4 4 -10 4 -5 0 -10
-5 -10 -11z"/>
<path d="M4455 1830 c-3 -5 -1 -10 4 -10 6 0 11 5 11 10 0 6 -2 10 -4 10 -3 0
-8 -4 -11 -10z"/>
<path d="M590 1820 c0 -5 -8 -7 -17 -3 -19 7 -18 5 11 -17 13 -10 17 -10 12
-2 -4 6 -3 12 3 12 5 0 12 -6 14 -12 4 -8 6 -7 6 3 1 9 -6 19 -14 23 -8 3 -15
1 -15 -4z"/>
<path d="M3551 1821 c-9 -6 -10 -11 -2 -15 6 -4 11 -2 11 4 0 7 7 9 16 6 8 -3
12 -2 9 4 -8 12 -16 12 -34 1z"/>
<path d="M3890 1819 c-12 -8 -11 -9 6 -4 17 4 22 1 20 -11 0 -9 6 -19 14 -21
11 -3 12 -2 2 5 -7 5 -10 16 -6 25 7 19 -12 23 -36 6z"/>
<path d="M3980 1815 c0 -8 2 -15 4 -15 2 0 6 7 10 15 3 8 1 15 -4 15 -6 0 -10
-7 -10 -15z"/>
<path d="M2850 1805 c0 -8 4 -15 8 -15 5 0 9 7 9 15 0 8 -4 15 -9 15 -4 0 -8
-7 -8 -15z"/>
<path d="M3243 1813 c9 -2 23 -2 30 0 6 3 -1 5 -18 5 -16 0 -22 -2 -12 -5z"/>
<path d="M3765 1810 c3 -5 8 -10 11 -10 2 0 4 5 4 10 0 6 -5 10 -11 10 -5 0
-7 -4 -4 -10z"/>
<path d="M3104 1791 c0 -15 3 -17 13 -9 7 6 10 14 7 19 -9 15 -20 10 -20 -10z"/>
<path d="M3407 1803 c-10 -9 -9 -23 1 -23 5 0 9 7 9 15 0 17 -1 18 -10 8z"/>
<path d="M4131 1807 c2 -1 13 -9 24 -17 19 -14 19 -14 6 3 -7 9 -18 17 -24 17
-6 0 -8 -1 -6 -3z"/>
<path d="M4256 1797 c3 -10 9 -15 12 -12 3 3 0 11 -7 18 -10 9 -11 8 -5 -6z"/>
<path d="M4294 1785 c-3 -13 -10 -23 -14 -20 -4 2 -5 -8 -2 -23 l5 -27 8 28
c4 16 13 34 19 42 7 9 8 15 1 20 -6 3 -13 -6 -17 -20z"/>
<path d="M3270 1784 c0 -8 5 -12 10 -9 6 3 10 10 10 16 0 5 -4 9 -10 9 -5 0
-10 -7 -10 -16z"/>
<path d="M3307 1793 c-4 -3 -7 -11 -7 -17 0 -6 5 -5 12 2 6 6 9 14 7 17 -3 3
-9 2 -12 -2z"/>
<path d="M3436 1783 c-6 -14 -5 -15 5 -6 7 7 10 15 7 18 -3 3 -9 -2 -12 -12z"/>
<path d="M3706 1785 c4 -8 11 -15 16 -15 6 0 5 6 -2 15 -7 8 -14 15 -16 15 -2
0 -1 -7 2 -15z"/>
<path d="M4107 1793 c-4 -3 -7 -11 -7 -17 0 -6 5 -5 12 2 6 6 9 14 7 17 -3 3
-9 2 -12 -2z"/>
<path d="M1003 1775 c-7 -8 -9 -16 -5 -19 4 -3 13 4 20 15 14 22 3 25 -15 4z"/>
<path d="M3890 1781 c0 -10 19 -25 25 -20 1 2 -3 10 -11 17 -8 7 -14 8 -14 3z"/>
<path d="M3965 1780 c3 -5 8 -10 11 -10 2 0 4 5 4 10 0 6 -5 10 -11 10 -5 0
-7 -4 -4 -10z"/>
<path d="M4020 1781 c0 -5 5 -13 10 -16 6 -3 10 -2 10 4 0 5 -4 13 -10 16 -5
3 -10 2 -10 -4z"/>
<path d="M4183 1776 c-9 -11 -8 -15 6 -19 14 -3 17 0 14 14 -6 22 -5 22 -20 5z"/>
<path d="M4236 1775 c-9 -26 -7 -32 5 -12 6 10 9 21 6 23 -2 3 -7 -2 -11 -11z"/>
<path d="M930 1770 c8 -5 22 -9 30 -9 10 0 8 3 -5 9 -27 12 -43 12 -25 0z"/>
<path d="M3342 1764 c1 -9 11 -18 21 -20 22 -3 21 -2 -4 19 -19 17 -20 17 -17
1z"/>
<path d="M3775 1770 c-3 -5 1 -10 9 -10 9 0 16 5 16 10 0 6 -4 10 -9 10 -6 0
-13 -4 -16 -10z"/>
<path d="M603 1763 c9 -2 17 -9 17 -14 0 -5 8 -9 18 -10 15 0 14 -1 -2 -8 -19
-7 -18 -8 4 -14 13 -3 26 -4 29 -2 2 3 -2 5 -10 5 -12 0 -12 2 0 9 11 7 9 10
-8 16 -11 3 -21 11 -21 16 0 5 -10 8 -22 8 -17 -1 -19 -2 -5 -6z"/>
<path d="M796 1755 c-3 -8 0 -17 6 -21 6 -4 8 -3 5 2 -3 6 10 11 30 11 25 1
32 -2 22 -8 -9 -5 -1 -7 23 -6 39 3 56 12 45 23 -4 4 -13 1 -22 -6 -12 -10
-18 -10 -29 0 -8 6 -23 10 -33 8 -10 -1 -23 1 -29 5 -7 4 -14 0 -18 -8z"/>
<path d="M3143 1755 c-7 -8 -13 -16 -13 -19 0 -2 6 -6 13 -9 7 -3 13 5 13 19
1 13 1 24 0 24 0 -1 -7 -7 -13 -15z"/>
<path d="M3392 1750 c0 -14 2 -19 5 -12 2 6 2 18 0 25 -3 6 -5 1 -5 -13z"/>
<path d="M3481 1754 c0 -11 3 -14 6 -6 3 7 2 16 -1 19 -3 4 -6 -2 -5 -13z"/>
<path d="M4145 1760 c-3 -5 -1 -10 4 -10 6 0 11 5 11 10 0 6 -2 10 -4 10 -3 0
-8 -4 -11 -10z"/>
<path d="M4340 1754 l-25 -15 25 7 c28 7 35 12 29 18 -2 2 -15 -2 -29 -10z"/>
<path d="M4531 1754 c0 -11 3 -14 6 -6 3 7 2 16 -1 19 -3 4 -6 -2 -5 -13z"/>
<path d="M3863 1740 c6 -11 15 -20 19 -20 12 0 -3 28 -18 34 -11 4 -12 2 -1
-14z"/>
<path d="M3500 1740 c0 -5 5 -10 11 -10 5 0 7 5 4 10 -3 6 -8 10 -11 10 -2 0
-4 -4 -4 -10z"/>
<path d="M3822 1730 c0 -14 2 -19 5 -12 2 6 2 18 0 25 -3 6 -5 1 -5 -13z"/>
<path d="M3905 1740 c-3 -5 -1 -10 4 -10 6 0 11 5 11 10 0 6 -2 10 -4 10 -3 0
-8 -4 -11 -10z"/>
<path d="M4480 1740 c0 -5 5 -10 11 -10 5 0 7 5 4 10 -3 6 -8 10 -11 10 -2 0
-4 -4 -4 -10z"/>
<path d="M699 1731 c11 -7 11 -9 0 -13 -8 -3 -5 -7 9 -10 19 -5 20 -4 11 13
-5 10 -15 19 -22 19 -8 0 -8 -3 2 -9z"/>
<path d="M970 1724 c0 -8 5 -12 10 -9 6 3 10 10 10 16 0 5 -4 9 -10 9 -5 0
-10 -7 -10 -16z"/>
<path d="M3270 1730 c0 -5 5 -10 11 -10 5 0 7 5 4 10 -3 6 -8 10 -11 10 -2 0
-4 -4 -4 -10z"/>
<path d="M4165 1730 c-3 -6 1 -7 9 -4 18 7 21 14 7 14 -6 0 -13 -4 -16 -10z"/>
<path d="M4504 1727 c-14 -16 -6 -37 14 -37 12 0 13 3 5 11 -6 6 -9 18 -6 25
6 17 2 17 -13 1z"/>
<path d="M542 1710 c0 -14 2 -19 5 -12 2 6 2 18 0 25 -3 6 -5 1 -5 -13z"/>
<path d="M3721 1720 c-1 -21 16 -46 26 -37 4 5 3 11 -3 15 -6 4 -14 14 -17 22
-5 13 -5 13 -6 0z"/>
<path d="M4348 1723 c7 -3 16 -2 19 1 4 3 -2 6 -13 5 -11 0 -14 -3 -6 -6z"/>
<path d="M993 1704 c-7 -7 -13 -18 -13 -24 0 -6 -5 -8 -12 -4 -7 4 -8 3 -4 -4
9 -16 9 -16 34 13 22 25 17 44 -5 19z"/>
<path d="M3587 1714 c-14 -15 7 -24 55 -24 45 0 50 -2 45 -19 -3 -14 -1 -18
10 -14 8 3 12 12 9 20 -3 8 -6 17 -6 19 0 2 -25 4 -56 4 -34 0 -53 4 -49 10 7
11 2 13 -8 4z"/>
<path d="M4031 1704 c0 -11 3 -14 6 -6 3 7 2 16 -1 19 -3 4 -6 -2 -5 -13z"/>
<path d="M4245 1710 c-3 -5 -1 -10 4 -10 6 0 11 5 11 10 0 6 -2 10 -4 10 -3 0
-8 -4 -11 -10z"/>
<path d="M4313 1699 c-1 -10 2 -19 8 -19 11 0 12 27 1 34 -4 2 -9 -4 -9 -15z"/>
<path d="M630 1700 c0 -5 5 -10 11 -10 5 0 7 5 4 10 -3 6 -8 10 -11 10 -2 0
-4 -4 -4 -10z"/>
<path d="M877 1699 c7 -7 15 -10 18 -7 3 3 -2 9 -12 12 -14 6 -15 5 -6 -5z"/>
<path d="M933 1696 c-24 -11 -31 -26 -12 -26 11 0 44 29 38 33 -2 2 -14 -2
-26 -7z"/>
<path d="M4167 1690 c-7 -26 6 -40 36 -40 10 0 17 8 17 20 0 13 -7 20 -19 20
-11 0 -21 6 -23 12 -3 7 -7 2 -11 -12z m43 -22 c0 -4 -7 -8 -15 -8 -8 0 -15 4
-15 8 0 5 7 9 15 9 8 0 15 -4 15 -9z"/>
<path d="M4266 1691 c-18 -20 -15 -41 6 -41 7 0 6 6 -2 15 -7 9 -8 15 -2 15 5
0 12 7 16 15 7 20 3 19 -18 -4z"/>
<path d="M4361 1694 c0 -11 3 -14 6 -6 3 7 2 16 -1 19 -3 4 -6 -2 -5 -13z"/>
<path d="M570 1680 c0 -11 4 -20 8 -20 4 0 8 9 8 20 0 11 -4 20 -8 20 -4 0 -8
-9 -8 -20z"/>
<path d="M3272 1691 c-11 -7 -11 -9 2 -14 10 -4 16 -1 16 8 0 17 -1 17 -18 6z"/>
<path d="M1028 1667 c-3 -14 0 -24 7 -24 6 0 11 8 10 18 -2 29 -12 32 -17 6z"/>
<path d="M3766 1681 c-4 -5 3 -7 14 -4 23 6 26 13 6 13 -8 0 -17 -4 -20 -9z"/>
<path d="M1000 1664 c0 -8 5 -12 10 -9 6 3 10 10 10 16 0 5 -4 9 -10 9 -5 0
-10 -7 -10 -16z"/>
<path d="M3155 1670 c-3 -6 1 -7 9 -4 18 7 21 14 7 14 -6 0 -13 -4 -16 -10z"/>
<path d="M3623 1673 c9 -2 25 -2 35 0 9 3 1 5 -18 5 -19 0 -27 -2 -17 -5z"/>
<path d="M4500 1671 c0 -5 5 -13 10 -16 6 -3 10 -2 10 4 0 5 -4 13 -10 16 -5
3 -10 2 -10 -4z"/>
<path d="M3857 1663 c-3 -5 8 -8 23 -8 15 0 26 3 23 8 -2 4 -13 7 -23 7 -10 0
-21 -3 -23 -7z"/>
<path d="M4085 1656 c-18 -13 -18 -14 8 -9 15 3 24 9 21 14 -7 12 -7 12 -29
-5z"/>
<path d="M3130 1651 c0 -6 4 -13 10 -16 6 -3 7 1 4 9 -7 18 -14 21 -14 7z"/>
<path d="M3169 1658 c-7 -23 -2 -36 18 -52 25 -18 25 -18 14 2 -6 12 -17 24
-23 29 -9 5 -5 9 12 14 24 7 24 7 3 8 -13 1 -23 0 -24 -1z"/>
<path d="M3288 1653 c13 -3 28 -15 34 -29 6 -13 15 -24 19 -24 4 0 1 14 -7 30
-12 23 -22 30 -42 29 -25 -2 -25 -2 -4 -6z"/>
<path d="M3576 1652 c-3 -5 1 -9 9 -9 8 0 12 4 9 9 -3 4 -7 8 -9 8 -2 0 -6 -4
-9 -8z"/>
<path d="M3618 1653 c7 -3 16 -2 19 1 4 3 -2 6 -13 5 -11 0 -14 -3 -6 -6z"/>
<path d="M3770 1650 c-8 -5 -10 -10 -5 -10 6 0 17 5 25 10 8 5 11 10 5 10 -5
0 -17 -5 -25 -10z"/>
<path d="M955 1641 c-3 -5 -2 -12 3 -15 5 -3 9 1 9 9 0 17 -3 19 -12 6z"/>
<path d="M3224 1635 c-4 -9 -4 -19 0 -22 3 -4 6 1 6 10 0 21 17 22 23 2 4 -12
5 -11 3 1 -2 23 -24 30 -32 9z"/>
<path d="M3485 1640 c3 -5 8 -10 11 -10 2 0 4 5 4 10 0 6 -5 10 -11 10 -5 0
-7 -4 -4 -10z"/>
<path d="M3295 1630 c-3 -5 -1 -10 4 -10 6 0 11 5 11 10 0 6 -2 10 -4 10 -3 0
-8 -4 -11 -10z"/>
<path d="M3969 1624 c10 -8 17 -23 16 -36 -1 -13 0 -15 2 -5 4 17 28 24 36 10
2 -5 2 -2 1 5 -2 6 1 12 5 12 5 0 12 8 15 17 6 16 6 16 -12 0 -20 -18 -42 -22
-42 -8 0 5 6 11 13 14 6 3 -3 5 -21 4 -29 0 -30 -1 -13 -13z"/>
<path d="M4237 1629 c-9 -6 -15 -14 -12 -20 4 -5 13 -2 22 6 19 20 14 27 -10
14z"/>
<path d="M4140 1620 c0 -5 5 -10 10 -10 6 0 10 5 10 10 0 6 -4 10 -10 10 -5 0
-10 -4 -10 -10z"/>
<path d="M3088 1613 c7 -3 16 -2 19 1 4 3 -2 6 -13 5 -11 0 -14 -3 -6 -6z"/>
<path d="M3515 1610 c-3 -5 -2 -10 4 -10 5 0 13 5 16 10 3 6 2 10 -4 10 -5 0
-13 -4 -16 -10z"/>
<path d="M3917 1606 c-4 -10 -1 -13 8 -9 8 3 12 9 9 14 -7 12 -11 11 -17 -5z"/>
<path d="M3175 1590 c10 -11 20 -20 23 -20 3 0 -3 9 -13 20 -10 11 -20 20 -23
20 -3 0 3 -9 13 -20z"/>
<path d="M3950 1600 c0 -5 5 -10 10 -10 6 0 10 5 10 10 0 6 -4 10 -10 10 -5 0
-10 -4 -10 -10z"/>
<path d="M498 1593 c7 -3 16 -2 19 1 4 3 -2 6 -13 5 -11 0 -14 -3 -6 -6z"/>
<path d="M3230 1586 c0 -8 4 -17 9 -20 5 -4 7 3 4 14 -6 23 -13 26 -13 6z"/>
<path d="M4275 1590 c-3 -5 1 -10 10 -10 9 0 13 5 10 10 -3 6 -8 10 -10 10 -2
0 -7 -4 -10 -10z"/>
<path d="M3520 1580 c0 -6 7 -10 15 -10 8 0 15 2 15 4 0 2 -7 6 -15 10 -8 3
-15 1 -15 -4z"/>
<path d="M3880 1575 c0 -8 4 -15 10 -15 5 0 7 7 4 15 -4 8 -8 15 -10 15 -2 0
-4 -7 -4 -15z"/>
<path d="M4000 1581 c0 -6 4 -13 10 -16 6 -3 7 1 4 9 -7 18 -14 21 -14 7z"/>
<path d="M3924 1573 c10 -10 46 -11 40 -1 -3 4 -15 8 -26 8 -12 0 -18 -3 -14
-7z"/>
<path d="M4155 1570 c3 -6 1 -10 -6 -10 -7 0 -10 -3 -6 -6 3 -3 13 -2 22 4 16
8 16 9 1 15 -10 4 -15 3 -11 -3z"/>
<path d="M3470 1560 c0 -17 17 -47 23 -40 2 3 -2 16 -10 30 -7 14 -13 18 -13
10z"/>
<path d="M4262 1545 c0 -16 2 -22 5 -12 2 9 2 23 0 30 -3 6 -5 -1 -5 -18z"/>
<path d="M541 1544 c0 -11 3 -14 6 -6 3 7 2 16 -1 19 -3 4 -6 -2 -5 -13z"/>
<path d="M3516 1531 c-3 -4 6 -6 19 -3 14 2 25 6 25 8 0 8 -39 4 -44 -5z"/>
<path d="M506 1523 c5 -5 12 -12 16 -18 4 -6 8 -2 8 8 0 9 -7 17 -17 17 -9 0
-12 -3 -7 -7z"/>
<path d="M640 1500 c0 -5 5 -10 10 -10 6 0 10 5 10 10 0 6 -4 10 -10 10 -5 0
-10 -4 -10 -10z"/>
<path d="M3450 1499 c0 -7 -9 -9 -21 -6 -16 4 -18 3 -8 -9 6 -7 15 -12 19 -9
5 3 11 -3 13 -12 3 -10 5 -3 6 15 0 17 -1 32 -4 32 -3 0 -5 -5 -5 -11z"/>
<path d="M3553 1503 c9 -2 25 -2 35 0 9 3 1 5 -18 5 -19 0 -27 -2 -17 -5z"/>
<path d="M3490 1486 c0 -2 9 -6 20 -9 11 -3 18 -1 14 4 -5 9 -34 13 -34 5z"/>
<path d="M3544 1478 c-4 -6 -3 -8 4 -4 6 3 15 -1 20 -9 8 -15 10 -15 22 0 11
13 10 14 -5 9 -13 -5 -16 -4 -11 4 4 7 1 12 -8 12 -8 0 -18 -5 -22 -12z"/>
<path d="M3615 1453 c3 -8 5 -23 5 -34 0 -12 5 -16 15 -13 8 4 15 1 15 -5 0
-6 8 -11 18 -11 12 0 9 5 -11 18 -20 12 -26 23 -23 38 4 14 1 21 -10 21 -9 0
-13 -6 -9 -14z"/>
<path d="M3665 1460 c-3 -5 -1 -10 4 -10 6 0 11 5 11 10 0 6 -2 10 -4 10 -3 0
-8 -4 -11 -10z"/>
<path d="M3810 1464 c0 -3 7 -12 15 -20 16 -17 18 -14 9 10 -6 15 -24 23 -24
10z"/>
<path d="M4260 1459 c0 -5 5 -7 10 -4 6 3 10 8 10 11 0 2 -4 4 -10 4 -5 0 -10
-5 -10 -11z"/>
<path d="M3735 1450 c-3 -5 -1 -10 4 -10 6 0 11 5 11 10 0 6 -2 10 -4 10 -3 0
-8 -4 -11 -10z"/>
<path d="M457 1429 c-4 -16 -3 -18 9 -8 7 6 11 15 8 20 -8 13 -11 11 -17 -12z"/>
<path d="M3586 1433 c-6 -15 -8 -15 -16 -3 -8 13 -10 12 -10 -2 0 -20 15 -24
25 -8 4 6 11 8 16 5 5 -3 6 1 3 9 -8 20 -10 20 -18 -1z"/>
<path d="M3701 1433 c7 -10 15 -20 16 -22 2 -2 3 5 3 17 0 14 -6 22 -16 22
-14 0 -15 -3 -3 -17z"/>
<path d="M3805 1418 c9 -29 11 -30 27 -26 9 2 6 10 -10 26 l-24 23 7 -23z"/>
<path d="M3763 1392 c1 -14 5 -18 11 -12 7 7 6 14 -1 21 -9 9 -12 7 -10 -9z"/>
<path d="M390 1392 c0 -5 14 -7 30 -4 17 2 30 6 30 8 0 2 -13 4 -30 4 -16 0
-30 -4 -30 -8z"/>
<path d="M3538 1393 c7 -3 16 -2 19 1 4 3 -2 6 -13 5 -11 0 -14 -3 -6 -6z"/>
<path d="M3570 1365 c0 -8 5 -15 11 -15 5 0 8 4 5 9 -4 5 0 12 6 14 8 3 6 6
-4 6 -10 1 -18 -6 -18 -14z"/>
<path d="M3798 1373 c7 -3 16 -2 19 1 4 3 -2 6 -13 5 -11 0 -14 -3 -6 -6z"/>
<path d="M4170 1369 c0 -5 5 -7 10 -4 6 3 10 8 10 11 0 2 -4 4 -10 4 -5 0 -10
-5 -10 -11z"/>
<path d="M381 1354 c0 -11 3 -14 6 -6 3 7 2 16 -1 19 -3 4 -6 -2 -5 -13z"/>
<path d="M651 1354 c0 -11 3 -14 6 -6 3 7 2 16 -1 19 -3 4 -6 -2 -5 -13z"/>
<path d="M3648 1353 c7 -3 16 -2 19 1 4 3 -2 6 -13 5 -11 0 -14 -3 -6 -6z"/>
<path d="M3471 1338 c-1 -12 -6 -15 -18 -11 -10 3 -15 3 -12 -1 4 -4 19 -9 35
-12 16 -3 41 -19 57 -36 15 -17 27 -26 27 -20 0 6 -7 18 -16 27 -15 15 -15 17
2 30 11 8 14 15 7 15 -6 0 -15 -4 -18 -10 -3 -5 -11 -10 -16 -10 -6 0 -8 4 -5
9 4 5 -3 7 -13 4 -13 -3 -21 1 -24 14 -4 16 -5 16 -6 1z"/>
<path d="M3518 1343 c7 -3 16 -2 19 1 4 3 -2 6 -13 5 -11 0 -14 -3 -6 -6z"/>
<path d="M3810 1335 c0 -8 2 -15 4 -15 2 0 6 7 10 15 3 8 1 15 -4 15 -6 0 -10
-7 -10 -15z"/>
<path d="M3571 1333 c-1 -17 16 -25 25 -12 4 7 3 9 -4 5 -5 -3 -13 0 -15 6 -4
9 -6 10 -6 1z"/>
<path d="M4156 1325 c-9 -26 -7 -32 5 -12 6 10 9 21 6 23 -2 3 -7 -2 -11 -11z"/>
<path d="M3560 1306 c0 -4 8 -18 18 -31 18 -22 19 -22 30 -4 15 23 15 29 2 29
-5 0 -10 -7 -10 -17 0 -13 -4 -11 -20 7 -11 13 -20 20 -20 16z"/>
<path d="M3831 1294 c0 -11 3 -14 6 -6 3 7 2 16 -1 19 -3 4 -6 -2 -5 -13z"/>
<path d="M3790 1290 c0 -5 5 -10 10 -10 6 0 10 5 10 10 0 6 -4 10 -10 10 -5 0
-10 -4 -10 -10z"/>
<path d="M290 1280 c-23 -7 -23 -8 -3 -9 12 -1 25 4 28 9 3 6 5 10 3 9 -2 -1
-14 -5 -28 -9z"/>
<path d="M727 1276 c-3 -8 -5 -20 -3 -27 3 -20 38 -71 44 -64 3 3 -3 14 -13
25 -22 25 -28 52 -13 61 7 4 7 9 0 13 -5 3 -12 0 -15 -8z"/>
<path d="M488 1273 c6 -2 18 -2 25 0 6 3 1 5 -13 5 -14 0 -19 -2 -12 -5z"/>
<path d="M257 1241 c3 -12 11 -17 19 -14 11 4 11 7 -1 19 -19 19 -24 18 -18
-5z"/>
<path d="M480 1241 c0 -5 7 -11 14 -14 10 -4 13 -1 9 9 -6 15 -23 19 -23 5z"/>
<path d="M3715 1230 c3 -5 8 -10 11 -10 2 0 4 5 4 10 0 6 -5 10 -11 10 -5 0
-7 -4 -4 -10z"/>
<path d="M3900 1224 c0 -3 7 -12 15 -20 16 -17 18 -14 9 10 -6 15 -24 23 -24
10z"/>
<path d="M422 1196 c7 -8 15 -12 17 -11 5 6 -10 25 -20 25 -5 0 -4 -6 3 -14z"/>
<path d="M1315 1200 c3 -5 11 -10 16 -10 6 0 7 5 4 10 -3 6 -11 10 -16 10 -6
0 -7 -4 -4 -10z"/>
<path d="M3768 1203 c7 -3 16 -2 19 1 4 3 -2 6 -13 5 -11 0 -14 -3 -6 -6z"/>
<path d="M463 1186 c-6 -8 -9 -17 -6 -20 12 -11 19 -6 20 14 2 23 2 23 -14 6z"/>
<path d="M790 1180 c-13 -8 -12 -10 3 -10 9 0 17 5 17 10 0 12 -1 12 -20 0z"/>
<path d="M1240 1169 c0 -5 5 -7 10 -4 6 3 10 8 10 11 0 2 -4 4 -10 4 -5 0 -10
-5 -10 -11z"/>
<path d="M1298 1173 c7 -3 16 -2 19 1 4 3 -2 6 -13 5 -11 0 -14 -3 -6 -6z"/>
<path d="M731 1154 c0 -11 3 -14 6 -6 3 7 2 16 -1 19 -3 4 -6 -2 -5 -13z"/>
<path d="M3845 1160 c4 -6 11 -8 16 -5 14 9 11 15 -7 15 -8 0 -12 -5 -9 -10z"/>
<path d="M1295 1145 c-16 -49 -16 -51 0 -31 15 19 20 46 10 46 -3 0 -8 -7 -10
-15z"/>
<path d="M453 1143 c-10 -3 -10 -8 1 -19 19 -18 22 -18 22 6 0 21 -2 22 -23
13z"/>
<path d="M867 1135 c-4 -8 -2 -17 4 -20 5 -4 7 -10 4 -15 -5 -9 18 -20 41 -20
18 0 18 29 0 53 -16 21 -42 22 -49 2z"/>
<path d="M1200 1140 c0 -6 7 -10 15 -10 8 0 15 2 15 4 0 2 -7 6 -15 10 -8 3
-15 1 -15 -4z"/>
<path d="M790 1119 c0 -5 5 -7 10 -4 6 3 10 8 10 11 0 2 -4 4 -10 4 -5 0 -10
-5 -10 -11z"/>
<path d="M1026 1123 c6 -4 14 -15 17 -23 5 -11 6 -9 4 4 -1 11 -9 21 -17 23
-10 3 -11 2 -4 -4z"/>
<path d="M741 1104 c0 -11 3 -14 6 -6 3 7 2 16 -1 19 -3 4 -6 -2 -5 -13z"/>
<path d="M1204 1085 c26 -20 42 -19 22 0 -8 8 -21 15 -28 15 -8 -1 -6 -6 6
-15z"/>
<path d="M726 1055 c-3 -8 -1 -15 4 -15 6 0 10 7 10 15 0 8 -2 15 -4 15 -2 0
-6 -7 -10 -15z"/>
<path d="M1206 1051 c-3 -4 6 -6 19 -3 14 2 25 6 25 8 0 8 -39 4 -44 -5z"/>
<path d="M760 1040 c0 -5 4 -10 9 -10 6 0 13 5 16 10 3 6 -1 10 -9 10 -9 0
-16 -4 -16 -10z"/>
<path d="M1174 1041 c4 -5 1 -12 -4 -14 -6 -3 -5 -4 2 -3 15 3 23 26 8 26 -6
0 -9 -4 -6 -9z"/>
<path d="M1225 1020 c3 -5 11 -10 16 -10 6 0 7 5 4 10 -3 6 -11 10 -16 10 -6
0 -7 -4 -4 -10z"/>
<path d="M868 993 c7 -3 16 -2 19 1 4 3 -2 6 -13 5 -11 0 -14 -3 -6 -6z"/>
<path d="M926 981 c-4 -7 -5 -15 -2 -18 9 -9 19 4 14 18 -4 11 -6 11 -12 0z"/>
<path d="M443 953 c-15 -5 -17 -23 -4 -23 5 0 11 7 15 15 3 8 4 15 3 14 -1 0
-8 -3 -14 -6z"/>
<path d="M570 910 c0 -5 5 -10 11 -10 5 0 7 5 4 10 -3 6 -8 10 -11 10 -2 0 -4
-4 -4 -10z"/>
<path d="M630 911 c0 -6 4 -13 10 -16 6 -3 7 1 4 9 -7 18 -14 21 -14 7z"/>
<path d="M488 893 c6 -2 18 -2 25 0 6 3 1 5 -13 5 -14 0 -19 -2 -12 -5z"/>
<path d="M820 820 c0 -5 7 -7 15 -4 8 4 15 8 15 10 0 2 -7 4 -15 4 -8 0 -15
-4 -15 -10z"/>
<path d="M693 755 c-15 -17 -16 -25 -3 -25 5 0 14 9 20 20 12 23 1 26 -17 5z"/>
<path d="M3927 265 c-19 -85 -22 -155 -7 -155 6 0 10 19 10 43 0 23 7 73 15
112 18 83 17 75 7 75 -5 0 -16 -34 -25 -75z"/>
<path d="M3886 273 c-3 -21 -5 -63 -5 -93 2 -54 2 -53 10 20 5 41 10 83 13 93
2 9 1 17 -4 17 -4 0 -10 -17 -14 -37z"/>
<path d="M3710 264 c-27 -69 -51 -178 -46 -200 9 -35 57 -33 91 3 14 15 25 32
25 37 0 4 6 3 13 -3 17 -13 40 8 56 52 13 34 14 47 3 47 -5 0 -14 -18 -21 -40
-15 -50 -36 -54 -28 -5 3 21 2 33 -4 30 -5 -4 -9 -14 -9 -23 -1 -28 -69 -114
-88 -110 -26 5 -26 41 3 139 15 50 24 93 21 96 -3 3 -10 -7 -16 -23z"/>
<path d="M3951 178 c-1 -20 4 -40 10 -44 11 -6 8 -59 -7 -112 -4 -12 -2 -22 4
-22 5 0 15 33 21 73 6 39 14 82 17 95 4 13 2 22 -5 22 -6 0 -11 -8 -11 -17 -1
-12 -6 -7 -15 12 l-13 30 -1 -37z"/>
<path d="M3849 69 c-12 -10 -29 -19 -37 -19 -8 0 -27 -11 -44 -25 l-30 -25 86
0 c78 0 86 2 86 19 0 11 2 25 5 33 3 7 -6 18 -20 24 -20 10 -28 9 -46 -7z"/>
</g>
</svg>
